<?xml version="1.0" encoding="UTF-8" standalone="no"?>
<!-- Created with Inkscape (http://www.inkscape.org/) -->

<svg
   width="210mm"
   height="297mm"
   viewBox="0 0 210 297"
   version="1.1"
   id="svg5"
   inkscape:version="1.1.2 (0a00cf5339, 2022-02-04)"
   sodipodi:docname="medfate_logo_image.svg"
   inkscape:export-filename="/home/miquel/mapa de bits.png"
   inkscape:export-xdpi="150"
   inkscape:export-ydpi="150"
   xmlns:inkscape="http://www.inkscape.org/namespaces/inkscape"
   xmlns:sodipodi="http://sodipodi.sourceforge.net/DTD/sodipodi-0.dtd"
   xmlns="http://www.w3.org/2000/svg"
   xmlns:svg="http://www.w3.org/2000/svg">
  <sodipodi:namedview
     id="namedview7"
     pagecolor="#ffffff"
     bordercolor="#666666"
     borderopacity="1.0"
     inkscape:pageshadow="2"
     inkscape:pageopacity="0.0"
     inkscape:pagecheckerboard="0"
     inkscape:document-units="mm"
     showgrid="false"
     inkscape:zoom="1.9704153"
     inkscape:cx="201.73412"
     inkscape:cy="304.50433"
     inkscape:window-width="1920"
     inkscape:window-height="1043"
     inkscape:window-x="0"
     inkscape:window-y="0"
     inkscape:window-maximized="1"
     inkscape:current-layer="layer2" />
  <defs
     id="defs2">
    <inkscape:path-effect
       effect="simplify"
       id="path-effect5803"
       is_visible="true"
       lpeversion="1"
       steps="1"
       threshold="0.00102703"
       smooth_angles="360"
       helper_size="0"
       simplify_individual_paths="false"
       simplify_just_coalesce="false" />
    <inkscape:path-effect
       effect="simplify"
       id="path-effect5589"
       is_visible="true"
       lpeversion="1"
       steps="1"
       threshold="0.00102703"
       smooth_angles="360"
       helper_size="0"
       simplify_individual_paths="false"
       simplify_just_coalesce="false" />
    <inkscape:path-effect
       effect="simplify"
       id="path-effect5585"
       is_visible="true"
       lpeversion="1"
       steps="1"
       threshold="0.00102703"
       smooth_angles="360"
       helper_size="0"
       simplify_individual_paths="false"
       simplify_just_coalesce="false" />
    <inkscape:path-effect
       effect="simplify"
       id="path-effect4812"
       is_visible="true"
       lpeversion="1"
       steps="1"
       threshold="0.00102703"
       smooth_angles="360"
       helper_size="0"
       simplify_individual_paths="false"
       simplify_just_coalesce="false" />
    <inkscape:path-effect
       effect="simplify"
       id="path-effect4808"
       is_visible="true"
       lpeversion="1"
       steps="1"
       threshold="0.00102703"
       smooth_angles="360"
       helper_size="0"
       simplify_individual_paths="false"
       simplify_just_coalesce="false" />
    <inkscape:path-effect
       effect="simplify"
       id="path-effect4804"
       is_visible="true"
       lpeversion="1"
       steps="1"
       threshold="0.00102703"
       smooth_angles="360"
       helper_size="0"
       simplify_individual_paths="false"
       simplify_just_coalesce="false" />
    <inkscape:path-effect
       effect="simplify"
       id="path-effect2949"
       is_visible="true"
       lpeversion="1"
       steps="1"
       threshold="0.00102703"
       smooth_angles="360"
       helper_size="0"
       simplify_individual_paths="false"
       simplify_just_coalesce="false" />
    <inkscape:path-effect
       effect="simplify"
       id="path-effect2945"
       is_visible="true"
       lpeversion="1"
       steps="1"
       threshold="0.00102703"
       smooth_angles="360"
       helper_size="0"
       simplify_individual_paths="false"
       simplify_just_coalesce="false" />
    <inkscape:path-effect
       effect="simplify"
       id="path-effect2052"
       is_visible="true"
       lpeversion="1"
       steps="1"
       threshold="0.00102703"
       smooth_angles="360"
       helper_size="0"
       simplify_individual_paths="false"
       simplify_just_coalesce="false" />
    <inkscape:path-effect
       effect="simplify"
       id="path-effect966"
       is_visible="true"
       lpeversion="1"
       steps="1"
       threshold="0.00102703"
       smooth_angles="360"
       helper_size="0"
       simplify_individual_paths="false"
       simplify_just_coalesce="false" />
    <inkscape:path-effect
       effect="simplify"
       id="path-effect4825"
       is_visible="true"
       lpeversion="1"
       steps="1"
       threshold="0.00102703"
       smooth_angles="360"
       helper_size="0"
       simplify_individual_paths="false"
       simplify_just_coalesce="false" />
    <inkscape:path-effect
       effect="simplify"
       id="path-effect4595"
       is_visible="true"
       lpeversion="1"
       steps="1"
       threshold="0.00102703"
       smooth_angles="360"
       helper_size="0"
       simplify_individual_paths="false"
       simplify_just_coalesce="false" />
    <inkscape:path-effect
       effect="simplify"
       id="path-effect4525"
       is_visible="true"
       lpeversion="1"
       steps="1"
       threshold="0.00102703"
       smooth_angles="360"
       helper_size="0"
       simplify_individual_paths="false"
       simplify_just_coalesce="false" />
    <inkscape:path-effect
       effect="simplify"
       id="path-effect4322"
       is_visible="true"
       lpeversion="1"
       steps="1"
       threshold="0.00102703"
       smooth_angles="360"
       helper_size="0"
       simplify_individual_paths="false"
       simplify_just_coalesce="false" />
    <inkscape:path-effect
       effect="simplify"
       id="path-effect1447"
       is_visible="true"
       lpeversion="1"
       steps="1"
       threshold="0.00102703"
       smooth_angles="360"
       helper_size="0"
       simplify_individual_paths="false"
       simplify_just_coalesce="false" />
    <inkscape:path-effect
       effect="simplify"
       id="path-effect1443"
       is_visible="true"
       lpeversion="1"
       steps="1"
       threshold="0.00102703"
       smooth_angles="360"
       helper_size="0"
       simplify_individual_paths="false"
       simplify_just_coalesce="false" />
    <inkscape:path-effect
       effect="simplify"
       id="path-effect1308"
       is_visible="true"
       lpeversion="1"
       steps="1"
       threshold="0.00102703"
       smooth_angles="360"
       helper_size="0"
       simplify_individual_paths="false"
       simplify_just_coalesce="false" />
    <inkscape:path-effect
       effect="simplify"
       id="path-effect1304"
       is_visible="true"
       lpeversion="1"
       steps="1"
       threshold="0.00102703"
       smooth_angles="360"
       helper_size="0"
       simplify_individual_paths="false"
       simplify_just_coalesce="false" />
    <inkscape:path-effect
       effect="simplify"
       id="path-effect1300"
       is_visible="true"
       lpeversion="1"
       steps="1"
       threshold="0.00102703"
       smooth_angles="360"
       helper_size="0"
       simplify_individual_paths="false"
       simplify_just_coalesce="false" />
    <inkscape:path-effect
       effect="simplify"
       id="path-effect1136"
       is_visible="true"
       lpeversion="1"
       steps="1"
       threshold="0.00102703"
       smooth_angles="360"
       helper_size="0"
       simplify_individual_paths="false"
       simplify_just_coalesce="false" />
    <inkscape:path-effect
       effect="simplify"
       id="path-effect1132"
       is_visible="true"
       lpeversion="1"
       steps="1"
       threshold="0.00102703"
       smooth_angles="360"
       helper_size="0"
       simplify_individual_paths="false"
       simplify_just_coalesce="false" />
    <inkscape:path-effect
       effect="simplify"
       id="path-effect899"
       is_visible="true"
       lpeversion="1"
       steps="1"
       threshold="0.00102703"
       smooth_angles="360"
       helper_size="0"
       simplify_individual_paths="false"
       simplify_just_coalesce="false" />
    <inkscape:path-effect
       effect="simplify"
       id="path-effect895"
       is_visible="true"
       lpeversion="1"
       steps="1"
       threshold="0.00102703"
       smooth_angles="360"
       helper_size="0"
       simplify_individual_paths="false"
       simplify_just_coalesce="false" />
    <inkscape:path-effect
       effect="simplify"
       id="path-effect891"
       is_visible="true"
       lpeversion="1"
       steps="1"
       threshold="0.00102703"
       smooth_angles="360"
       helper_size="0"
       simplify_individual_paths="false"
       simplify_just_coalesce="false" />
    <inkscape:path-effect
       effect="simplify"
       id="path-effect2052-3"
       is_visible="true"
       lpeversion="1"
       steps="1"
       threshold="0.00102703"
       smooth_angles="360"
       helper_size="0"
       simplify_individual_paths="false"
       simplify_just_coalesce="false" />
    <inkscape:path-effect
       effect="simplify"
       id="path-effect2052-7"
       is_visible="true"
       lpeversion="1"
       steps="1"
       threshold="0.00102703"
       smooth_angles="360"
       helper_size="0"
       simplify_individual_paths="false"
       simplify_just_coalesce="false" />
    <inkscape:path-effect
       effect="simplify"
       id="path-effect2052-35"
       is_visible="true"
       lpeversion="1"
       steps="1"
       threshold="0.00102703"
       smooth_angles="360"
       helper_size="0"
       simplify_individual_paths="false"
       simplify_just_coalesce="false" />
    <inkscape:path-effect
       effect="simplify"
       id="path-effect2052-9"
       is_visible="true"
       lpeversion="1"
       steps="1"
       threshold="0.00102703"
       smooth_angles="360"
       helper_size="0"
       simplify_individual_paths="false"
       simplify_just_coalesce="false" />
    <inkscape:path-effect
       effect="simplify"
       id="path-effect2052-2"
       is_visible="true"
       lpeversion="1"
       steps="1"
       threshold="0.00102703"
       smooth_angles="360"
       helper_size="0"
       simplify_individual_paths="false"
       simplify_just_coalesce="false" />
    <inkscape:path-effect
       effect="simplify"
       id="path-effect2052-0"
       is_visible="true"
       lpeversion="1"
       steps="1"
       threshold="0.00102703"
       smooth_angles="360"
       helper_size="0"
       simplify_individual_paths="false"
       simplify_just_coalesce="false" />
    <inkscape:path-effect
       effect="simplify"
       id="path-effect2052-36"
       is_visible="true"
       lpeversion="1"
       steps="1"
       threshold="0.00102703"
       smooth_angles="360"
       helper_size="0"
       simplify_individual_paths="false"
       simplify_just_coalesce="false" />
    <inkscape:path-effect
       effect="simplify"
       id="path-effect2052-6"
       is_visible="true"
       lpeversion="1"
       steps="1"
       threshold="0.00102703"
       smooth_angles="360"
       helper_size="0"
       simplify_individual_paths="false"
       simplify_just_coalesce="false" />
    <inkscape:path-effect
       effect="simplify"
       id="path-effect2052-35-6"
       is_visible="true"
       lpeversion="1"
       steps="1"
       threshold="0.00102703"
       smooth_angles="360"
       helper_size="0"
       simplify_individual_paths="false"
       simplify_just_coalesce="false" />
    <inkscape:path-effect
       effect="simplify"
       id="path-effect2052-35-6-8"
       is_visible="true"
       lpeversion="1"
       steps="1"
       threshold="0.00102703"
       smooth_angles="360"
       helper_size="0"
       simplify_individual_paths="false"
       simplify_just_coalesce="false" />
    <inkscape:path-effect
       effect="simplify"
       id="path-effect2945-9"
       is_visible="true"
       lpeversion="1"
       steps="1"
       threshold="0.00102703"
       smooth_angles="360"
       helper_size="0"
       simplify_individual_paths="false"
       simplify_just_coalesce="false" />
    <inkscape:path-effect
       effect="simplify"
       id="path-effect2945-9-0"
       is_visible="true"
       lpeversion="1"
       steps="1"
       threshold="0.00102703"
       smooth_angles="360"
       helper_size="0"
       simplify_individual_paths="false"
       simplify_just_coalesce="false" />
    <inkscape:path-effect
       effect="simplify"
       id="path-effect2945-9-0-3"
       is_visible="true"
       lpeversion="1"
       steps="1"
       threshold="0.00102703"
       smooth_angles="360"
       helper_size="0"
       simplify_individual_paths="false"
       simplify_just_coalesce="false" />
    <inkscape:path-effect
       effect="simplify"
       id="path-effect2945-9-0-5"
       is_visible="true"
       lpeversion="1"
       steps="1"
       threshold="0.00102703"
       smooth_angles="360"
       helper_size="0"
       simplify_individual_paths="false"
       simplify_just_coalesce="false" />
    <inkscape:path-effect
       effect="simplify"
       id="path-effect2945-9-0-5-2"
       is_visible="true"
       lpeversion="1"
       steps="1"
       threshold="0.00102703"
       smooth_angles="360"
       helper_size="0"
       simplify_individual_paths="false"
       simplify_just_coalesce="false" />
    <inkscape:path-effect
       effect="simplify"
       id="path-effect2945-9-8"
       is_visible="true"
       lpeversion="1"
       steps="1"
       threshold="0.00102703"
       smooth_angles="360"
       helper_size="0"
       simplify_individual_paths="false"
       simplify_just_coalesce="false" />
    <inkscape:path-effect
       effect="simplify"
       id="path-effect2945-9-8-7"
       is_visible="true"
       lpeversion="1"
       steps="1"
       threshold="0.00102703"
       smooth_angles="360"
       helper_size="0"
       simplify_individual_paths="false"
       simplify_just_coalesce="false" />
    <inkscape:path-effect
       effect="simplify"
       id="path-effect2052-6-6"
       is_visible="true"
       lpeversion="1"
       steps="1"
       threshold="0.00102703"
       smooth_angles="360"
       helper_size="0"
       simplify_individual_paths="false"
       simplify_just_coalesce="false" />
    <inkscape:path-effect
       effect="simplify"
       id="path-effect2052-6-6-2"
       is_visible="true"
       lpeversion="1"
       steps="1"
       threshold="0.00102703"
       smooth_angles="360"
       helper_size="0"
       simplify_individual_paths="false"
       simplify_just_coalesce="false" />
    <inkscape:path-effect
       effect="simplify"
       id="path-effect2052-6-6-3"
       is_visible="true"
       lpeversion="1"
       steps="1"
       threshold="0.00102703"
       smooth_angles="360"
       helper_size="0"
       simplify_individual_paths="false"
       simplify_just_coalesce="false" />
    <inkscape:path-effect
       effect="simplify"
       id="path-effect2052-6-6-9"
       is_visible="true"
       lpeversion="1"
       steps="1"
       threshold="0.00102703"
       smooth_angles="360"
       helper_size="0"
       simplify_individual_paths="false"
       simplify_just_coalesce="false" />
    <inkscape:path-effect
       effect="simplify"
       id="path-effect2052-6-6-7"
       is_visible="true"
       lpeversion="1"
       steps="1"
       threshold="0.00102703"
       smooth_angles="360"
       helper_size="0"
       simplify_individual_paths="false"
       simplify_just_coalesce="false" />
    <inkscape:path-effect
       effect="simplify"
       id="path-effect2052-6-6-4"
       is_visible="true"
       lpeversion="1"
       steps="1"
       threshold="0.00102703"
       smooth_angles="360"
       helper_size="0"
       simplify_individual_paths="false"
       simplify_just_coalesce="false" />
    <inkscape:path-effect
       effect="simplify"
       id="path-effect2052-6-6-0"
       is_visible="true"
       lpeversion="1"
       steps="1"
       threshold="0.00102703"
       smooth_angles="360"
       helper_size="0"
       simplify_individual_paths="false"
       simplify_just_coalesce="false" />
    <inkscape:path-effect
       effect="simplify"
       id="path-effect2052-6-6-6"
       is_visible="true"
       lpeversion="1"
       steps="1"
       threshold="0.00102703"
       smooth_angles="360"
       helper_size="0"
       simplify_individual_paths="false"
       simplify_just_coalesce="false" />
    <inkscape:path-effect
       effect="simplify"
       id="path-effect2052-6-6-63"
       is_visible="true"
       lpeversion="1"
       steps="1"
       threshold="0.00102703"
       smooth_angles="360"
       helper_size="0"
       simplify_individual_paths="false"
       simplify_just_coalesce="false" />
    <inkscape:path-effect
       effect="simplify"
       id="path-effect2052-6-6-06"
       is_visible="true"
       lpeversion="1"
       steps="1"
       threshold="0.00102703"
       smooth_angles="360"
       helper_size="0"
       simplify_individual_paths="false"
       simplify_just_coalesce="false" />
    <inkscape:path-effect
       effect="simplify"
       id="path-effect2052-6-6-5"
       is_visible="true"
       lpeversion="1"
       steps="1"
       threshold="0.00102703"
       smooth_angles="360"
       helper_size="0"
       simplify_individual_paths="false"
       simplify_just_coalesce="false" />
    <inkscape:path-effect
       effect="simplify"
       id="path-effect2052-6-6-6-0"
       is_visible="true"
       lpeversion="1"
       steps="1"
       threshold="0.00102703"
       smooth_angles="360"
       helper_size="0"
       simplify_individual_paths="false"
       simplify_just_coalesce="false" />
    <inkscape:path-effect
       effect="simplify"
       id="path-effect2052-6-6-63-8"
       is_visible="true"
       lpeversion="1"
       steps="1"
       threshold="0.00102703"
       smooth_angles="360"
       helper_size="0"
       simplify_individual_paths="false"
       simplify_just_coalesce="false" />
  </defs>
  <g
     inkscape:groupmode="layer"
     id="layer2"
     inkscape:label="Capa 0">
    <path
       style="fill:#d4aa00;fill-opacity:1;stroke:#000000;stroke-width:0;stroke-linecap:butt;stroke-linejoin:miter;stroke-miterlimit:4;stroke-dasharray:none;stroke-opacity:1"
       d="m 36.258962,101.48604 36.005533,22.7928 c 12.556069,-6.09931 26.627353,-14.37522 37.018845,-21.58183 l -2.2464,-1.12359 -2.63448,0.1228 -1.86275,0.66187 -8.811208,-0.13892 -3.016691,0.57731 -3.274035,-0.70526 -7.820095,0.39129 -3.603564,-0.93001 -2.596737,-0.29597 -2.476167,-0.008 -4.955378,-0.3049 -2.054442,0.46068 -2.202107,0.158 -2.924492,-0.17784 -3.06127,0.54781 -8.878344,-0.26222 -4.262394,0.22868 -2.090366,-0.77563 z"
       id="path5034"
       inkscape:export-filename="/home/miquel/Rpackages/medfate/data-raw/medfate_logo_image.png"
       inkscape:export-xdpi="150"
       inkscape:export-ydpi="150"
       sodipodi:nodetypes="cccccccccccccccccccccc" />
    <path
       style="fill:#fffff5;fill-opacity:1;stroke:#000000;stroke-width:0.264583px;stroke-linecap:butt;stroke-linejoin:miter;stroke-opacity:1"
       d="m 70.584268,54.707784 c 0.01236,-0.185352 0.09671,-0.370099 0.27357,-0.456966 0.612689,-0.300924 1.054931,-0.882147 1.719061,-1.090451 0.190152,-0.05964 0.391585,0.0041 0.58441,-0.02674 0.388045,-0.06214 0.766984,-0.172508 1.14572,-0.27723 0.329659,-0.09115 0.673149,-0.09955 1.012599,-0.06228 0.87666,0.09626 1.759609,0.08322 2.639402,0.124678 0.742595,0.035 1.510152,0.08398 2.19551,0.388967 0.529506,0.23563 1.012766,0.561958 1.457834,0.926896 0.198502,0.162764 0.249685,0.507602 0.537786,0.542242 0.403792,0.04855 0.737699,-0.237501 1.010431,-0.49578 0.338548,-0.320608 0.749793,-0.547286 1.146334,-0.786317 0.50647,-0.305295 1.063473,-0.516421 1.642643,-0.64327 1.597725,-0.349932 3.219513,-0.640617 4.856709,-0.679126 0.834913,-0.01964 1.672362,0.05922 2.493001,0.253605 0.161836,0.03833 0.305077,0.219562 0.463525,0.172116 0.195864,-0.05865 0.381023,0.02569 0.559488,0.101468 0.675039,0.286644 1.372372,0.542268 1.990789,0.937678 0.292996,0.187339 0.462275,0.805743 0.790475,0.671628 0.284294,-0.116173 0.534601,-0.311403 0.822728,-0.415369 0.219974,-0.07937 0.34508,-0.191103 0.59237,-0.362738 0.18485,-0.128298 0.432486,-0.152839 0.653606,-0.174936 0.694461,-0.0694 1.395811,-0.03907 2.086991,0.03679 0.47901,0.05257 0.98342,0.05956 1.42293,0.262924 0.35179,0.162777 0.54464,0.52818 0.69483,0.864301 0.40073,0.896807 0.92522,1.770267 1.05317,2.756389 0.0609,0.469213 0.15743,0.922636 0.22301,1.404869 0.0603,0.443374 -0.19336,0.860583 -0.16498,1.303509 0.0161,0.251157 -0.0449,0.494393 -0.13929,0.727693 -0.2007,0.495853 -0.53747,0.966138 -1.00702,1.208692 -0.44136,0.22799 -0.93001,0.345461 -1.41094,0.457347 -1.04427,0.242946 -2.101725,0.454872 -3.172706,0.523576 -0.354868,0.02276 -0.718233,0.01879 -1.056005,-0.124577 -0.646501,-0.274414 -1.251136,-0.634408 -1.882873,-0.939449 -0.168763,-0.08149 -0.339628,0.04984 -0.471405,0.142332 -0.189434,0.132968 -0.417479,0.174139 -0.637135,0.232321 -1.363216,0.361086 -2.674775,0.9444 -4.088334,1.102005 -0.527538,0.05882 -1.059721,-0.0044 -1.571131,-0.142929 -0.812937,-0.220187 -1.632975,-0.473878 -2.352624,-0.917821 -0.217401,-0.134112 -0.418592,-0.291884 -0.667019,-0.374846 -0.393642,-0.131456 -0.804204,-0.222037 -1.15113,-0.479333 -0.225294,-0.167088 -0.532925,-0.667802 -0.727755,-0.441732 -0.07786,0.09034 -0.06721,0.222706 -0.243067,0.283527 -0.294431,0.10183 -0.714556,0.01655 -0.891981,0.297119 -0.122043,0.192991 -0.1399,0.432501 -0.289225,0.61591 -0.352168,0.43255 -0.788916,0.823923 -1.304711,1.024658 -0.471222,0.183388 -0.981721,0.229699 -1.480063,0.285922 -0.915668,0.103305 -1.834257,0.173854 -2.748382,0.296342 -0.687257,0.09209 -1.416247,0.158686 -2.075612,-0.112744 -0.634157,-0.261053 -1.145763,-0.747459 -1.758261,-1.045126 -0.380892,-0.185109 -0.817861,-0.195447 -1.188895,-0.424629 -0.360897,-0.222921 -0.735161,-0.464014 -1.17263,-0.492572 -0.926127,-0.06046 -1.847871,-0.179904 -2.75856,-0.362633 -0.44073,-0.08843 -0.864505,-0.261911 -1.309828,-0.318116 -0.247995,-0.0313 -0.589649,0.108042 -0.75018,-0.115868 -0.177359,-0.247382 -0.28872,-0.536788 -0.387429,-0.822607 -0.09308,-0.26951 -0.25119,-0.506897 -0.427771,-0.727308 -0.275323,-0.343662 -0.297732,-0.810082 -0.257149,-1.228545 0.04319,-0.445368 0.07734,-0.92843 0.332719,-1.300924 0.258547,-0.377114 0.729426,-0.504835 1.027706,-0.846505 0.138526,-0.158677 0.313307,-0.278187 0.521086,-0.338977 0.675449,-0.197616 1.384378,-0.291113 2.023306,-0.606567 0.391274,-0.193181 0.804719,-0.395222 1.2577,-0.359698 0.105288,0.0083 0.209702,0.02578 0.312627,0.04922"
       id="path964"
       inkscape:path-effect="#path-effect966"
       inkscape:original-d="m 70.584268,54.707784 c 0.06367,-0.47175 0.208894,-0.366538 0.67577,-0.702474 0.420148,-0.302313 0.941324,-0.818809 1.498227,-0.880687 0.408408,-0.04538 0.212455,0.07766 0.697465,-0.05007 1.737701,-0.457618 1.112361,-0.291967 2.915783,-0.202324 1.164447,0.05788 2.345327,-0.02106 3.48325,0.323792 0.664276,0.201316 1.157501,0.658455 1.722247,1.013095 0.195148,0.122547 0.280701,0.474175 0.49644,0.548552 0.09934,0.03425 0.212463,0.03285 0.315076,0.01021 0.467733,-0.103219 0.779397,-0.557807 1.183336,-0.815223 0.645803,-0.411546 1.297279,-0.844558 2.070886,-1.029973 1.568775,-0.376002 6.272038,-1.290119 8.016867,-0.339741 0.0899,0.04896 0.26019,-0.03233 0.35866,0 0.38563,0.126627 2.1196,0.902298 2.38188,1.11361 0.19144,0.154239 0.46322,0.519719 0.7034,0.612347 0.0208,0.008 0.6661,-0.315574 0.71267,-0.352907 0.17375,-0.139263 0.48425,-0.107458 0.61309,-0.233661 0.0643,-0.06295 0.0531,-0.200671 0.13723,-0.232365 0.67485,-0.254085 1.739165,-0.146191 2.419535,-0.116832 0.40161,0.01733 1.31699,0.130852 1.6961,0.282434 0.42437,0.169686 0.69486,0.871482 0.86066,1.226733 0.35095,0.75197 0.66853,1.374098 0.85454,2.204593 0.10989,0.490659 0.019,1.10858 0.23885,1.547371 0.11148,0.222498 -0.12521,0.902565 -0.14353,1.147175 -0.0144,0.192685 0.0166,0.482655 -0.0475,0.675026 -0.2147,0.644091 -0.51941,1.004789 -1.04333,1.423675 -0.53204,0.425381 -4.579855,1.206222 -5.401705,1.001972 -0.58306,-0.144907 -2.155,-1.110398 -2.29602,-1.073925 -0.24572,0.06356 -0.46312,0.282149 -0.72287,0.339368 -1.61717,0.356237 -3.824787,1.486135 -5.547831,1.115279 -0.896522,-0.19296 -2.318842,-0.666411 -3.00387,-1.19094 -0.309385,-0.236897 -0.902808,-0.295762 -1.241197,-0.465288 -0.378378,-0.189561 -0.702453,-0.644348 -1.035534,-0.648692 -0.07917,-0.0011 -0.02706,0.17698 -0.09495,0.217715 -0.288849,0.173307 -0.773891,0.107897 -1.022554,0.343448 -0.09695,0.09184 -0.137737,0.38441 -0.218826,0.511275 -0.283607,0.443698 -0.8928,0.866574 -1.33485,1.11936 -0.561316,0.320987 -2.924474,0.407987 -3.873987,0.552259 -2.07546,0.315354 -2.351902,0.165881 -4.14307,-1.038132 -0.356923,-0.239922 -0.821693,-0.190297 -1.196689,-0.425413 -1.053383,-0.660459 -0.889294,-0.495115 -2.221654,-0.63182 -1.039892,-0.106693 -2.060146,-0.310613 -3.046338,-0.588052 -0.224536,-0.06317 -0.658834,0.07248 -0.835808,-0.148543 -0.13752,-0.171746 -0.391245,-0.904615 -0.520179,-1.130855 -0.122166,-0.21436 -0.299276,-0.395499 -0.411694,-0.615127 -0.2749,-0.537065 -0.08317,-1.734342 0.178771,-2.259487 0.147335,-0.295383 0.575527,-0.489762 0.820975,-0.67206 0.198242,-0.147238 0.377172,-0.443209 0.618652,-0.523703 0.585597,-0.195199 1.32888,-0.285123 1.876906,-0.519993 0.730046,-0.312875 1.054219,-0.623872 1.856695,-0.440992"
       inkscape:export-filename="/home/miquel/Rpackages/medfate/data-raw/medfate_logo_image.png"
       inkscape:export-xdpi="150"
       inkscape:export-ydpi="150" />
    <path
       style="fill:#000080;stroke:#0000b3;stroke-width:0.265;stroke-linecap:butt;stroke-linejoin:miter;stroke-miterlimit:4;stroke-dasharray:none;stroke-opacity:1"
       d="m 95.67981,76.539729 c -0.01229,0.178428 -0.04562,0.358353 -0.124181,0.520436 -0.05084,0.104894 -0.123674,0.197555 -0.205575,0.280007 -0.09847,0.09913 -0.208712,0.187699 -0.291726,0.301298 -0.06916,0.09464 -0.113182,0.205902 -0.135899,0.320557 -0.01743,0.08799 -0.02367,0.1779 -0.02372,0.267495"
       id="path2050"
       inkscape:path-effect="#path-effect2052"
       inkscape:original-d="m 95.67981,76.539729 c -0.07091,1.04525 -0.781103,0.749694 -0.781103,1.689793"
       inkscape:export-filename="/home/miquel/Rpackages/medfate/data-raw/medfate_logo_image.png"
       inkscape:export-xdpi="150"
       inkscape:export-ydpi="150" />
    <path
       style="fill:#000080;stroke:#0000b3;stroke-width:0.265;stroke-linecap:butt;stroke-linejoin:miter;stroke-miterlimit:4;stroke-dasharray:none;stroke-opacity:1"
       d="m 85.912992,65.271814 c -0.01229,0.178428 -0.04562,0.358353 -0.124181,0.520436 -0.05084,0.104894 -0.123674,0.197555 -0.205575,0.280007 -0.09847,0.09913 -0.208712,0.187699 -0.291726,0.301298 -0.06916,0.09464 -0.113182,0.205902 -0.135899,0.320557 -0.01743,0.08799 -0.02367,0.1779 -0.02372,0.267495"
       id="path2050-6"
       inkscape:path-effect="#path-effect2052-3"
       inkscape:original-d="m 85.912992,65.271814 c -0.07091,1.04525 -0.781103,0.749694 -0.781103,1.689793"
       inkscape:export-filename="/home/miquel/Rpackages/medfate/data-raw/medfate_logo_image.png"
       inkscape:export-xdpi="150"
       inkscape:export-ydpi="150" />
    <path
       style="fill:#000080;stroke:#0000b3;stroke-width:0.265;stroke-linecap:butt;stroke-linejoin:miter;stroke-miterlimit:4;stroke-dasharray:none;stroke-opacity:1"
       d="m 80.092155,65.271814 c -0.01229,0.178428 -0.04562,0.358353 -0.124181,0.520436 -0.05084,0.104894 -0.123674,0.197555 -0.205575,0.280007 -0.09847,0.09913 -0.208712,0.187699 -0.291726,0.301298 -0.06916,0.09464 -0.113182,0.205902 -0.135899,0.320557 -0.01743,0.08799 -0.02367,0.1779 -0.02372,0.267495"
       id="path2050-62"
       inkscape:path-effect="#path-effect2052-35"
       inkscape:original-d="m 80.092155,65.271814 c -0.07091,1.04525 -0.781103,0.749694 -0.781103,1.689793"
       inkscape:export-filename="/home/miquel/Rpackages/medfate/data-raw/medfate_logo_image.png"
       inkscape:export-xdpi="150"
       inkscape:export-ydpi="150" />
    <path
       style="fill:#000080;stroke:#0000b3;stroke-width:0.265;stroke-linecap:butt;stroke-linejoin:miter;stroke-miterlimit:4;stroke-dasharray:none;stroke-opacity:1"
       d="m 74.055955,65.040226 c -0.01229,0.178428 -0.04562,0.358353 -0.124181,0.520436 -0.05084,0.104894 -0.123674,0.197555 -0.205575,0.280007 -0.09846,0.09913 -0.208712,0.187699 -0.291726,0.301298 -0.06916,0.09464 -0.113182,0.205902 -0.135899,0.320557 -0.01744,0.08799 -0.02367,0.1779 -0.02372,0.267495"
       id="path2050-62-1-7"
       inkscape:path-effect="#path-effect2052-35-6-8"
       inkscape:original-d="m 74.055955,65.040226 c -0.07091,1.04525 -0.781103,0.749694 -0.781103,1.689793"
       inkscape:export-filename="/home/miquel/Rpackages/medfate/data-raw/medfate_logo_image.png"
       inkscape:export-xdpi="150"
       inkscape:export-ydpi="150" />
    <path
       style="fill:#000080;stroke:#0000b3;stroke-width:0.265;stroke-linecap:butt;stroke-linejoin:miter;stroke-miterlimit:4;stroke-dasharray:none;stroke-opacity:1"
       d="m 84.325491,68.446816 c -0.01229,0.178428 -0.04562,0.358353 -0.124181,0.520436 -0.05084,0.104894 -0.123674,0.197555 -0.205575,0.280007 -0.09846,0.09913 -0.208712,0.187699 -0.291726,0.301298 -0.06916,0.09464 -0.113182,0.205902 -0.135899,0.320557 -0.01744,0.088 -0.02367,0.1779 -0.02372,0.267495"
       id="path2050-1"
       inkscape:path-effect="#path-effect2052-9"
       inkscape:original-d="m 84.325491,68.446816 c -0.07091,1.04525 -0.781103,0.749694 -0.781103,1.689793"
       inkscape:export-filename="/home/miquel/Rpackages/medfate/data-raw/medfate_logo_image.png"
       inkscape:export-xdpi="150"
       inkscape:export-ydpi="150" />
    <path
       style="fill:#000080;stroke:#0000b3;stroke-width:0.265;stroke-linecap:butt;stroke-linejoin:miter;stroke-miterlimit:4;stroke-dasharray:none;stroke-opacity:1"
       d="m 91.733829,65.271814 c -0.01229,0.178428 -0.04562,0.358353 -0.124181,0.520436 -0.05084,0.104894 -0.123674,0.197555 -0.205575,0.280007 -0.09846,0.09913 -0.208712,0.187699 -0.291726,0.301298 -0.06916,0.09464 -0.113182,0.205902 -0.135899,0.320557 -0.01744,0.08799 -0.02367,0.1779 -0.02372,0.267495"
       id="path2050-9"
       inkscape:path-effect="#path-effect2052-0"
       inkscape:original-d="m 91.733829,65.271814 c -0.07091,1.04525 -0.781103,0.749694 -0.781103,1.689793"
       inkscape:export-filename="/home/miquel/Rpackages/medfate/data-raw/medfate_logo_image.png"
       inkscape:export-xdpi="150"
       inkscape:export-ydpi="150" />
    <path
       style="fill:#000080;stroke:#0000b3;stroke-width:0.265;stroke-linecap:butt;stroke-linejoin:miter;stroke-miterlimit:4;stroke-dasharray:none;stroke-opacity:1"
       d="m 88.558827,68.446816 c -0.01229,0.178428 -0.04562,0.358353 -0.124181,0.520436 -0.05084,0.104894 -0.123674,0.197555 -0.205575,0.280007 -0.09847,0.09913 -0.208712,0.187699 -0.291726,0.301298 -0.06916,0.09464 -0.113182,0.205902 -0.135899,0.320557 -0.01743,0.088 -0.02367,0.1779 -0.02372,0.267495"
       id="path2050-0"
       inkscape:path-effect="#path-effect2052-36"
       inkscape:original-d="m 88.558827,68.446816 c -0.07091,1.04525 -0.781103,0.749694 -0.781103,1.689793"
       inkscape:export-filename="/home/miquel/Rpackages/medfate/data-raw/medfate_logo_image.png"
       inkscape:export-xdpi="150"
       inkscape:export-ydpi="150" />
    <path
       style="fill:#000080;stroke:#0000b3;stroke-width:0.265;stroke-linecap:butt;stroke-linejoin:miter;stroke-miterlimit:4;stroke-dasharray:none;stroke-opacity:1"
       d="m 88.02966,72.150985 c -0.01229,0.178428 -0.04562,0.358353 -0.124181,0.520436 -0.05084,0.104894 -0.123674,0.197555 -0.205575,0.280007 -0.09847,0.09913 -0.208712,0.187699 -0.291726,0.301298 -0.06916,0.09464 -0.113182,0.205902 -0.135899,0.320557 -0.01743,0.08799 -0.02367,0.1779 -0.02372,0.267495"
       id="path2050-2"
       inkscape:path-effect="#path-effect2052-6"
       inkscape:original-d="m 88.02966,72.150985 c -0.07091,1.04525 -0.781103,0.749694 -0.781103,1.689793"
       inkscape:export-filename="/home/miquel/Rpackages/medfate/data-raw/medfate_logo_image.png"
       inkscape:export-xdpi="150"
       inkscape:export-ydpi="150" />
    <path
       style="fill:#000080;stroke:#0000b3;stroke-width:0.265;stroke-linecap:butt;stroke-linejoin:miter;stroke-miterlimit:4;stroke-dasharray:none;stroke-opacity:1"
       d="m 91.325076,75.797239 c -0.01229,0.178428 -0.04562,0.358353 -0.124181,0.520436 -0.05084,0.104894 -0.123674,0.197555 -0.205575,0.280007 -0.09847,0.09913 -0.208712,0.187699 -0.291726,0.301298 -0.06916,0.09464 -0.113182,0.205902 -0.135899,0.320557 -0.01744,0.08799 -0.02367,0.1779 -0.02372,0.267495"
       id="path2050-2-1"
       inkscape:path-effect="#path-effect2052-6-6"
       inkscape:original-d="m 91.325076,75.797239 c -0.07091,1.04525 -0.781103,0.749694 -0.781103,1.689793"
       inkscape:export-filename="/home/miquel/Rpackages/medfate/data-raw/medfate_logo_image.png"
       inkscape:export-xdpi="150"
       inkscape:export-ydpi="150" />
    <path
       style="fill:#000080;stroke:#0000b3;stroke-width:0.265;stroke-linecap:butt;stroke-linejoin:miter;stroke-miterlimit:4;stroke-dasharray:none;stroke-opacity:1"
       d="m 90.117371,80.720683 c -0.01229,0.178428 -0.04562,0.358353 -0.124181,0.520436 -0.05084,0.104894 -0.123674,0.197555 -0.205575,0.280007 -0.09847,0.09913 -0.208712,0.187699 -0.291726,0.301298 -0.06916,0.09464 -0.113182,0.205902 -0.135899,0.320557 -0.01743,0.08799 -0.02367,0.1779 -0.02372,0.267495"
       id="path2050-2-1-9"
       inkscape:path-effect="#path-effect2052-6-6-2"
       inkscape:original-d="m 90.117371,80.720683 c -0.07091,1.04525 -0.781103,0.749694 -0.781103,1.689793"
       inkscape:export-filename="/home/miquel/Rpackages/medfate/data-raw/medfate_logo_image.png"
       inkscape:export-xdpi="150"
       inkscape:export-ydpi="150" />
    <path
       style="fill:#000080;stroke:#0000b3;stroke-width:0.265;stroke-linecap:butt;stroke-linejoin:miter;stroke-miterlimit:4;stroke-dasharray:none;stroke-opacity:1"
       d="m 93.630478,70.940951 c -0.01229,0.178428 -0.04562,0.358353 -0.124181,0.520436 -0.05084,0.104894 -0.123674,0.197555 -0.205575,0.280007 -0.09846,0.09913 -0.208712,0.187699 -0.291726,0.301298 -0.06916,0.09464 -0.113182,0.205902 -0.135899,0.320557 -0.01744,0.088 -0.02367,0.1779 -0.02372,0.267495"
       id="path2050-2-1-1"
       inkscape:path-effect="#path-effect2052-6-6-3"
       inkscape:original-d="m 93.630478,70.940951 c -0.07091,1.04525 -0.781103,0.749694 -0.781103,1.689793"
       inkscape:export-filename="/home/miquel/Rpackages/medfate/data-raw/medfate_logo_image.png"
       inkscape:export-xdpi="150"
       inkscape:export-ydpi="150" />
    <path
       style="opacity:1;fill:#ffdd55;fill-opacity:1;stroke:none;stroke-width:1.00157;stroke-miterlimit:4;stroke-dasharray:none;stroke-opacity:1"
       id="path2674"
       sodipodi:type="arc"
       sodipodi:cx="50.468437"
       sodipodi:cy="59.555172"
       sodipodi:rx="5.3974085"
       sodipodi:ry="5.1840658"
       sodipodi:start="4.7055298"
       sodipodi:end="4.7031213"
       sodipodi:open="true"
       sodipodi:arc-type="arc"
       d="m 50.431416,54.371228 a 5.3974085,5.1840658 0 0 1 5.434279,5.145265 5.3974085,5.1840658 0 0 1 -5.353737,5.222576 5.3974085,5.1840658 0 0 1 -5.440727,-5.138975 5.3974085,5.1840658 0 0 1 5.347185,-5.228765"
       inkscape:export-filename="/home/miquel/Rpackages/medfate/data-raw/medfate_logo_image.png"
       inkscape:export-xdpi="150"
       inkscape:export-ydpi="150" />
    <path
       style="fill:none;stroke:#ffdd55;stroke-width:0.3;stroke-linecap:butt;stroke-linejoin:miter;stroke-miterlimit:4;stroke-dasharray:none;stroke-opacity:1"
       d="m 45.003058,53.877142 c 0.139881,6.82e-4 0.283383,0.02133 0.408738,0.08698 0.09486,0.04968 0.172289,0.128392 0.228117,0.219213 0.0783,0.127382 0.121304,0.271782 0.168524,0.412512 0.04718,0.140613 0.09937,0.282609 0.188723,0.402781 0.07004,0.0942 0.165966,0.167978 0.273692,0.214474 0.02933,0.01266 0.05945,0.02346 0.09005,0.03263"
       id="path2943"
       inkscape:path-effect="#path-effect2945"
       inkscape:original-d="m 45.003058,53.877142 c 1.044409,0.004 0.539155,1.123238 1.357845,1.368599"
       inkscape:export-filename="/home/miquel/Rpackages/medfate/data-raw/medfate_logo_image.png"
       inkscape:export-xdpi="150"
       inkscape:export-ydpi="150" />
    <path
       style="fill:none;stroke:#ffdd55;stroke-width:0.3;stroke-linecap:butt;stroke-linejoin:miter;stroke-miterlimit:4;stroke-dasharray:none;stroke-opacity:1"
       d="m 54.96728,63.900409 c 0.139881,6.82e-4 0.283383,0.02133 0.408738,0.08698 0.09486,0.04968 0.172289,0.128392 0.228117,0.219213 0.0783,0.127382 0.121304,0.271782 0.168524,0.412512 0.04718,0.140613 0.09937,0.282609 0.188723,0.402781 0.07004,0.0942 0.165966,0.167978 0.273692,0.214474 0.02933,0.01266 0.05945,0.02347 0.09005,0.03263"
       id="path2943-2"
       inkscape:path-effect="#path-effect2945-9"
       inkscape:original-d="m 54.96728,63.900409 c 1.044409,0.004 0.539155,1.123238 1.357845,1.368599"
       inkscape:export-filename="/home/miquel/Rpackages/medfate/data-raw/medfate_logo_image.png"
       inkscape:export-xdpi="150"
       inkscape:export-ydpi="150" />
    <path
       style="fill:none;stroke:#ffdd55;stroke-width:0.3;stroke-linecap:butt;stroke-linejoin:miter;stroke-miterlimit:4;stroke-dasharray:none;stroke-opacity:1"
       d="m 56.739896,59.846887 c 0.08786,-0.108848 0.193578,-0.208059 0.323123,-0.264999 0.09803,-0.04309 0.207858,-0.05443 0.31366,-0.04135 0.148392,0.01835 0.288041,0.07491 0.427458,0.12588 0.1393,0.05093 0.282808,0.0988 0.432467,0.104024 0.117315,0.0041 0.234835,-0.02478 0.338409,-0.07991 0.0282,-0.01501 0.05545,-0.03179 0.08171,-0.04997"
       id="path2943-2-9"
       inkscape:path-effect="#path-effect2945-9-8"
       inkscape:original-d="m 56.739896,59.846887 c 0.655142,-0.813385 1.214053,0.280048 1.916829,-0.206327"
       inkscape:export-filename="/home/miquel/Rpackages/medfate/data-raw/medfate_logo_image.png"
       inkscape:export-xdpi="150"
       inkscape:export-ydpi="150" />
    <path
       style="fill:none;stroke:#ffdd55;stroke-width:0.3;stroke-linecap:butt;stroke-linejoin:miter;stroke-miterlimit:4;stroke-dasharray:none;stroke-opacity:1"
       d="m 42.274381,59.992882 c 0.08786,-0.108848 0.193578,-0.208059 0.323123,-0.264999 0.09803,-0.04309 0.207858,-0.05443 0.31366,-0.04135 0.148392,0.01835 0.288041,0.07491 0.427458,0.12588 0.1393,0.05093 0.282808,0.0988 0.432467,0.104024 0.117315,0.0041 0.234835,-0.02478 0.338409,-0.07991 0.0282,-0.01501 0.05545,-0.03179 0.08171,-0.04997"
       id="path2943-2-9-3"
       inkscape:path-effect="#path-effect2945-9-8-7"
       inkscape:original-d="m 42.274381,59.992882 c 0.655142,-0.813385 1.214053,0.280048 1.916829,-0.206327"
       inkscape:export-filename="/home/miquel/Rpackages/medfate/data-raw/medfate_logo_image.png"
       inkscape:export-xdpi="150"
       inkscape:export-ydpi="150" />
    <path
       style="fill:none;stroke:#ffdd55;stroke-width:0.3;stroke-linecap:butt;stroke-linejoin:miter;stroke-miterlimit:4;stroke-dasharray:none;stroke-opacity:1"
       d="m 50.400254,53.668518 c -0.09313,-0.10437 -0.173862,-0.224795 -0.209009,-0.361868 -0.0266,-0.103729 -0.01996,-0.213939 0.01014,-0.316211 0.04221,-0.143442 0.120692,-0.272053 0.193624,-0.401342 0.07287,-0.129182 0.143416,-0.26301 0.172873,-0.409834 0.02309,-0.115093 0.01368,-0.235742 -0.0239,-0.346894 -0.01023,-0.03026 -0.02237,-0.05987 -0.03604,-0.08874"
       id="path2943-2-2"
       inkscape:path-effect="#path-effect2945-9-0"
       inkscape:original-d="m 50.400254,53.668518 c -0.696198,-0.778534 0.473483,-1.15246 0.107689,-1.924892"
       inkscape:transform-center-x="0.24118965"
       inkscape:transform-center-y="-0.2916929"
       inkscape:export-filename="/home/miquel/Rpackages/medfate/data-raw/medfate_logo_image.png"
       inkscape:export-xdpi="150"
       inkscape:export-ydpi="150" />
    <path
       style="fill:none;stroke:#ffdd55;stroke-width:0.3;stroke-linecap:butt;stroke-linejoin:miter;stroke-miterlimit:4;stroke-dasharray:none;stroke-opacity:1"
       d="m 54.872033,55.193438 c -0.01727,-0.138812 -0.01521,-0.283778 0.03382,-0.41652 0.0371,-0.100453 0.105225,-0.187339 0.188132,-0.254359 0.116281,-0.094 0.253971,-0.155171 0.387478,-0.220059 0.133397,-0.06483 0.267522,-0.134814 0.375236,-0.238845 0.08444,-0.08155 0.145294,-0.186148 0.177584,-0.298949 0.0088,-0.03071 0.01564,-0.06197 0.02081,-0.09349"
       id="path2943-2-2-9"
       inkscape:path-effect="#path-effect2945-9-0-5"
       inkscape:original-d="m 54.872033,55.193438 c -0.13004,-1.036289 1.044774,-0.67882 1.183061,-1.522226"
       inkscape:transform-center-x="-0.025543459"
       inkscape:transform-center-y="-0.3335309"
       inkscape:export-filename="/home/miquel/Rpackages/medfate/data-raw/medfate_logo_image.png"
       inkscape:export-xdpi="150"
       inkscape:export-ydpi="150" />
    <path
       style="fill:none;stroke:#ffdd55;stroke-width:0.3;stroke-linecap:butt;stroke-linejoin:miter;stroke-miterlimit:4;stroke-dasharray:none;stroke-opacity:1"
       d="m 45.077999,65.772868 c -0.01727,-0.138812 -0.01521,-0.283778 0.03382,-0.41652 0.0371,-0.100453 0.105225,-0.187339 0.188132,-0.254359 0.116281,-0.094 0.253971,-0.155171 0.387479,-0.220059 0.133396,-0.06483 0.26752,-0.134814 0.375235,-0.238845 0.08444,-0.08155 0.145295,-0.186147 0.177585,-0.298949 0.0088,-0.03071 0.01564,-0.06197 0.02081,-0.09349"
       id="path2943-2-2-9-2"
       inkscape:path-effect="#path-effect2945-9-0-5-2"
       inkscape:original-d="m 45.077999,65.772868 c -0.13004,-1.036289 1.044774,-0.67882 1.183062,-1.522226"
       inkscape:transform-center-x="-0.025543459"
       inkscape:transform-center-y="-0.3335309"
       inkscape:export-filename="/home/miquel/Rpackages/medfate/data-raw/medfate_logo_image.png"
       inkscape:export-xdpi="150"
       inkscape:export-ydpi="150" />
    <path
       style="fill:none;stroke:#ffdd55;stroke-width:0.3;stroke-linecap:butt;stroke-linejoin:miter;stroke-miterlimit:4;stroke-dasharray:none;stroke-opacity:1"
       d="m 50.680804,67.379225 c -0.09314,-0.10437 -0.173862,-0.224795 -0.209009,-0.361868 -0.0266,-0.103729 -0.01996,-0.213939 0.01014,-0.316211 0.04221,-0.143442 0.120692,-0.272053 0.193624,-0.401342 0.07287,-0.129182 0.143416,-0.26301 0.172873,-0.409834 0.02309,-0.115093 0.01368,-0.235742 -0.02389,-0.346894 -0.01023,-0.03026 -0.02237,-0.05987 -0.03604,-0.08874"
       id="path2943-2-2-7"
       inkscape:path-effect="#path-effect2945-9-0-3"
       inkscape:original-d="m 50.680804,67.379225 c -0.696198,-0.778534 0.473483,-1.15246 0.107689,-1.924892"
       inkscape:transform-center-x="0.24118965"
       inkscape:transform-center-y="-0.2916929"
       inkscape:export-filename="/home/miquel/Rpackages/medfate/data-raw/medfate_logo_image.png"
       inkscape:export-xdpi="150"
       inkscape:export-ydpi="150" />
    <path
       style="fill:none;stroke:#000000;stroke-width:0.264583px;stroke-linecap:butt;stroke-linejoin:miter;stroke-opacity:1"
       d="m 66.652607,100.98978 4.378868,0.26037 2.385904,0.006 2.596737,0.29597 3.603564,0.93001 7.820094,-0.39129 3.274036,0.70526 3.016692,-0.57693 6.726638,0.15351"
       id="path4849"
       inkscape:export-filename="/home/miquel/Rpackages/medfate/data-raw/medfate_logo_image.png"
       inkscape:export-xdpi="150"
       inkscape:export-ydpi="150" />
    <path
       style="fill:#000080;stroke:#0000b3;stroke-width:0.265;stroke-linecap:butt;stroke-linejoin:miter;stroke-miterlimit:4;stroke-dasharray:none;stroke-opacity:1"
       d="m 96.478944,65.528867 c -0.01229,0.178428 -0.04562,0.358353 -0.124181,0.520436 -0.05084,0.104894 -0.123674,0.197555 -0.205575,0.280007 -0.09846,0.09913 -0.208712,0.187699 -0.291726,0.301298 -0.06916,0.09464 -0.113182,0.205902 -0.135899,0.320557 -0.01744,0.08799 -0.02367,0.1779 -0.02372,0.267495"
       id="path2050-2-1-4"
       inkscape:path-effect="#path-effect2052-6-6-9"
       inkscape:original-d="m 96.478944,65.528867 c -0.07091,1.04525 -0.781103,0.749694 -0.781103,1.689793"
       inkscape:export-filename="/home/miquel/Rpackages/medfate/data-raw/medfate_logo_image.png"
       inkscape:export-xdpi="150"
       inkscape:export-ydpi="150" />
    <path
       style="fill:#000080;stroke:#0000b3;stroke-width:0.265;stroke-linecap:butt;stroke-linejoin:miter;stroke-miterlimit:4;stroke-dasharray:none;stroke-opacity:1"
       d="m 86.794161,84.898432 c -0.01229,0.178428 -0.04562,0.358353 -0.124181,0.520436 -0.05084,0.104894 -0.123674,0.197555 -0.205575,0.280007 -0.09847,0.09913 -0.208712,0.187699 -0.291726,0.301298 -0.06916,0.09464 -0.113182,0.205902 -0.135899,0.320557 -0.01743,0.088 -0.02367,0.1779 -0.02372,0.267495"
       id="path2050-2-1-5"
       inkscape:path-effect="#path-effect2052-6-6-4"
       inkscape:original-d="m 86.794161,84.898432 c -0.07091,1.04525 -0.781103,0.749694 -0.781103,1.689793"
       inkscape:export-filename="/home/miquel/Rpackages/medfate/data-raw/medfate_logo_image.png"
       inkscape:export-xdpi="150"
       inkscape:export-ydpi="150" />
    <path
       style="fill:#000080;stroke:#0000b3;stroke-width:0.265;stroke-linecap:butt;stroke-linejoin:miter;stroke-miterlimit:4;stroke-dasharray:none;stroke-opacity:1"
       d="m 81.794453,88.445551 c -0.01229,0.178428 -0.04562,0.358353 -0.124181,0.520436 -0.05084,0.104894 -0.123674,0.197555 -0.205575,0.280007 -0.09847,0.09913 -0.208712,0.187699 -0.291726,0.301298 -0.06916,0.09464 -0.113182,0.205902 -0.135899,0.320557 -0.01743,0.08799 -0.02367,0.1779 -0.02372,0.267495"
       id="path2050-2-1-3"
       inkscape:path-effect="#path-effect2052-6-6-0"
       inkscape:original-d="m 81.794453,88.445551 c -0.07091,1.04525 -0.781103,0.749694 -0.781103,1.689793"
       inkscape:export-filename="/home/miquel/Rpackages/medfate/data-raw/medfate_logo_image.png"
       inkscape:export-xdpi="150"
       inkscape:export-ydpi="150" />
    <path
       style="fill:#000080;stroke:#0000b3;stroke-width:0.265;stroke-linecap:butt;stroke-linejoin:miter;stroke-miterlimit:4;stroke-dasharray:none;stroke-opacity:1"
       d="m 84.610337,92.209493 c -0.01229,0.178428 -0.04562,0.358353 -0.124181,0.520436 -0.05084,0.104894 -0.123674,0.197555 -0.205575,0.280007 -0.09847,0.09913 -0.208712,0.187699 -0.291726,0.301298 -0.06916,0.09464 -0.113182,0.205902 -0.135899,0.320557 -0.01744,0.08799 -0.02367,0.1779 -0.02372,0.267495"
       id="path2050-2-1-10"
       inkscape:path-effect="#path-effect2052-6-6-6"
       inkscape:original-d="m 84.610337,92.209493 c -0.07091,1.04525 -0.781103,0.749694 -0.781103,1.689793"
       inkscape:export-filename="/home/miquel/Rpackages/medfate/data-raw/medfate_logo_image.png"
       inkscape:export-xdpi="150"
       inkscape:export-ydpi="150" />
    <path
       style="fill:#000080;stroke:#0000b3;stroke-width:0.265;stroke-linecap:butt;stroke-linejoin:miter;stroke-miterlimit:4;stroke-dasharray:none;stroke-opacity:1"
       d="m 87.091778,96.874892 c -0.01229,0.178428 -0.04562,0.358353 -0.124181,0.520436 -0.05084,0.104894 -0.123674,0.197555 -0.205575,0.280007 -0.09847,0.09913 -0.208712,0.187699 -0.291726,0.301298 -0.06916,0.09464 -0.113182,0.205902 -0.135899,0.320557 -0.01743,0.088 -0.02367,0.1779 -0.02372,0.267495"
       id="path2050-2-1-10-4"
       inkscape:path-effect="#path-effect2052-6-6-6-0"
       inkscape:original-d="m 87.091778,96.874892 c -0.07091,1.04525 -0.781103,0.749694 -0.781103,1.689793"
       inkscape:export-filename="/home/miquel/Rpackages/medfate/data-raw/medfate_logo_image.png"
       inkscape:export-xdpi="150"
       inkscape:export-ydpi="150" />
    <path
       style="fill:#000080;stroke:#0000b3;stroke-width:0.265;stroke-linecap:butt;stroke-linejoin:miter;stroke-miterlimit:4;stroke-dasharray:none;stroke-opacity:1"
       d="m 73.236496,95.839745 c -0.01229,0.178428 -0.04562,0.358353 -0.124181,0.520436 -0.05084,0.104894 -0.123674,0.197555 -0.205575,0.280007 -0.09847,0.09913 -0.208712,0.187699 -0.291726,0.301298 -0.06916,0.09464 -0.113182,0.205902 -0.135899,0.320557 -0.01743,0.08799 -0.02367,0.1779 -0.02372,0.267495"
       id="path2050-2-1-2-7"
       inkscape:path-effect="#path-effect2052-6-6-63-8"
       inkscape:original-d="m 73.236496,95.839745 c -0.07091,1.04525 -0.781103,0.749694 -0.781103,1.689793"
       inkscape:export-filename="/home/miquel/Rpackages/medfate/data-raw/medfate_logo_image.png"
       inkscape:export-xdpi="150"
       inkscape:export-ydpi="150" />
    <path
       style="fill:#000080;stroke:#0000b3;stroke-width:0.265;stroke-linecap:butt;stroke-linejoin:miter;stroke-miterlimit:4;stroke-dasharray:none;stroke-opacity:1"
       d="m 76.729583,87.651949 c -0.01229,0.178428 -0.04562,0.358353 -0.124181,0.520436 -0.05084,0.104894 -0.123674,0.197555 -0.205575,0.280007 -0.09847,0.09913 -0.208712,0.187699 -0.291726,0.301298 -0.06916,0.09464 -0.113182,0.205902 -0.135899,0.320557 -0.01743,0.088 -0.02367,0.1779 -0.02372,0.267495"
       id="path2050-2-1-47"
       inkscape:path-effect="#path-effect2052-6-6-5"
       inkscape:original-d="m 76.729583,87.651949 c -0.07091,1.04525 -0.781103,0.749694 -0.781103,1.689793"
       inkscape:export-filename="/home/miquel/Rpackages/medfate/data-raw/medfate_logo_image.png"
       inkscape:export-xdpi="150"
       inkscape:export-ydpi="150" />
    <path
       style="fill:none;stroke:#000000;stroke-width:0.264583px;stroke-linecap:butt;stroke-linejoin:miter;stroke-opacity:1"
       d="m 44.407502,101.84043 c -0.316461,-0.0318 -0.633265,0.0159 -0.947229,0.0517 -0.310041,0.0354 -0.625514,0.0691 -0.936263,0.0193 -0.186328,-0.0299 -0.360799,-0.10861 -0.520359,-0.20749 -0.252803,-0.15666 -0.480001,-0.35981 -0.760207,-0.46813 -0.227547,-0.088 -0.473199,-0.11603 -0.714994,-0.12887 -0.526543,-0.028 -1.054528,0.007 -1.577547,0.0676 -0.546861,0.063 -1.092948,0.14393 -1.628039,0.27421 -0.104279,0.0254 -0.207877,0.0552 -0.315524,0.0639 -0.24374,0.0196 -0.489374,0.007 -0.731475,-0.0239 -0.0056,-7.2e-4 -0.01128,-0.001 -0.0169,-0.002"
       id="path5587"
       inkscape:path-effect="#path-effect5589"
       inkscape:original-d="m 44.407502,101.84043 c -0.640286,-0.0684 -1.444866,0.22558 -2.061615,0.0276 -0.430466,-0.13816 -0.728882,-0.50759 -1.162566,-0.65426 -0.859755,-0.29075 -3.081079,0.026 -3.99768,0.26964 -0.304808,0.081 -0.896743,0.008 -0.926678,0.003"
       inkscape:export-filename="/home/miquel/Rpackages/medfate/data-raw/medfate_logo_image.png"
       inkscape:export-xdpi="150"
       inkscape:export-ydpi="150"
       sodipodi:nodetypes="csscc" />
    <path
       style="fill:none;stroke:#000000;stroke-width:0.264583px;stroke-linecap:butt;stroke-linejoin:miter;stroke-opacity:1"
       d="m 100.45514,102.37268 c 0.62878,-0.11999 1.27177,-0.0944 1.90849,-0.10166 0.30862,-0.004 0.61991,8.7e-4 0.92456,-0.0505 0.24944,-0.0421 0.4638,-0.18443 0.68251,-0.30202 0.12675,-0.0682 0.26254,-0.12088 0.40541,-0.1434 0.30298,-0.0478 0.61042,-0.0594 0.91661,-0.0633 0.46761,-0.006 0.93601,0.004 1.40191,0.0469 0.1938,0.0177 0.38655,0.052 0.57113,0.11579 0.34399,0.11884 0.64273,0.33118 0.95536,0.51174 0.25246,0.14581 0.52793,0.25876 0.8191,0.29568 0.0806,0.0102 0.16187,0.0151 0.24312,0.0151"
       id="path5801"
       inkscape:path-effect="#path-effect5803"
       inkscape:original-d="m 100.45514,102.37268 c 0.91373,-0.17488 1.87061,-0.043 2.78968,-0.14615 0.37265,-0.0418 0.67815,-0.33705 1.00809,-0.42542 0.50267,-0.13463 2.21921,-0.10773 2.74777,0 0.88405,0.18019 1.29222,0.8959 2.28266,0.8959"
       inkscape:export-filename="/home/miquel/Rpackages/medfate/data-raw/medfate_logo_image.png"
       inkscape:export-xdpi="150"
       inkscape:export-ydpi="150" />
    <path
       id="path8631-6"
       style="opacity:1;fill:#241f1c;fill-opacity:1;stroke:none;stroke-width:1.13386;stroke-miterlimit:4;stroke-dasharray:none;stroke-opacity:1"
       d="m 99.212823,89.11438 a 5.0881147,4.8805036 0 0 0 -0.394806,0.03049 1.0879706,1.0744572 0 0 1 0.06769,0.363802 1.0879706,1.0744572 0 0 1 -1.079002,1.08262 1.0879706,1.0744572 0 0 1 -1.066602,-0.822688 5.0881147,4.8805036 0 0 0 -1.084688,0.797367 1.0879706,1.0744572 0 0 1 0.619082,0.961181 1.0879706,1.0744572 0 0 1 -1.079002,1.082106 1.0879706,1.0744572 0 0 1 -0.712103,-0.255283 5.0881147,4.8805036 0 0 0 -0.283186,1.213879 1.0879707,1.0744572 0 0 1 0.31781,-0.05012 h 0.0026 a 1.0879707,1.0744572 0 0 1 1.095539,1.066086 1.0879707,1.0744572 0 0 1 -1.079003,1.082622 1.0879707,1.0744572 0 0 1 -0.04496,-0.0016 5.0881147,4.8805036 0 0 0 0.593244,1.092438 1.0879707,1.0744572 0 0 1 0.775147,-0.331761 h 0.0026 a 1.0879707,1.0744572 0 0 1 1.095539,1.066602 1.0879707,1.0744572 0 0 1 -0.263033,0.707448 5.0881147,4.8805036 0 0 0 1.358056,0.526068 1.0879707,1.0744573 0 0 1 1.077971,-1.082622 h 0.0026 a 1.0879707,1.0744573 0 0 1 1.095534,1.066602 1.0879707,1.0744573 0 0 1 -0.002,0.06873 5.0881147,4.8805036 0 0 0 1.29243,-0.411861 1.0879705,1.0744571 0 0 1 -0.25063,-0.675926 1.0879705,1.0744571 0 0 1 1.07797,-1.084172 h 0.003 a 1.0879705,1.0744571 0 0 1 0.88212,0.437181 5.0881147,4.8805036 0 0 0 0.62787,-0.964281 1.0879705,1.0744571 0 0 1 -0.81081,-1.028878 1.0879705,1.0744571 0 0 1 1.07746,-1.083654 h 0.003 a 1.0879705,1.0744571 0 0 1 0.21859,0.02119 5.0881147,4.8805036 0 0 0 0,-5.16e-4 5.0881147,4.8805036 0 0 0 0,-5.16e-4 5.0881147,4.8805036 0 0 0 0,-5.16e-4 5.0881147,4.8805036 0 0 0 0,-5.19e-4 5.0881147,4.8805036 0 0 0 0,-5.16e-4 5.0881147,4.8805036 0 0 0 0,-5.16e-4 5.0881147,4.8805036 0 0 0 0,-5.18e-4 5.0881147,4.8805036 0 0 0 0,-5.16e-4 5.0881147,4.8805036 0 0 0 0,-5.16e-4 5.0881147,4.8805036 0 0 0 0,-5.19e-4 5.0881147,4.8805036 0 0 0 0,-5.16e-4 5.0881147,4.8805036 0 0 0 0,-5.16e-4 5.0881147,4.8805036 0 0 0 0,-5.18e-4 5.0881147,4.8805036 0 0 0 0,-5.16e-4 5.0881147,4.8805036 0 0 0 0,-5.16e-4 5.0881147,4.8805036 0 0 0 0,-5.16e-4 5.0881147,4.8805036 0 0 0 0,-5.19e-4 5.0881147,4.8805036 0 0 0 0,-5.16e-4 5.0881147,4.8805036 0 0 0 0,-5.16e-4 5.0881147,4.8805036 0 0 0 0,-5.18e-4 5.0881147,4.8805036 0 0 0 0,-5.16e-4 5.0881147,4.8805036 0 0 0 0,-5.16e-4 5.0881147,4.8805036 0 0 0 0,-5.19e-4 5.0881147,4.8805036 0 0 0 0,-5.15e-4 5.0881147,4.8805036 0 0 0 0,-5.16e-4 5.0881147,4.8805036 0 0 0 0,-5.19e-4 5.0881147,4.8805036 0 0 0 0,-5.16e-4 5.0881147,4.8805036 0 0 0 0,-5.16e-4 5.0881147,4.8805036 0 0 0 0,-5.18e-4 5.0881147,4.8805036 0 0 0 0,-5.16e-4 5.0881147,4.8805036 0 0 0 0,-5.16e-4 5.0881147,4.8805036 0 0 0 0,-5.19e-4 5.0881147,4.8805036 0 0 0 0,-5.16e-4 5.0881147,4.8805036 0 0 0 0,-5.16e-4 5.0881147,4.8805036 0 0 0 0,-5.16e-4 5.0881147,4.8805036 0 0 0 0,-5.18e-4 5.0881147,4.8805036 0 0 0 0,-5.16e-4 5.0881147,4.8805036 0 0 0 0,-5.16e-4 5.0881147,4.8805036 0 0 0 0,-5.19e-4 5.0881147,4.8805036 0 0 0 0,-5.16e-4 5.0881147,4.8805036 0 0 0 0,-5.16e-4 5.0881147,4.8805036 0 0 0 0,-5.18e-4 5.0881147,4.8805036 0 0 0 0,-5.16e-4 5.0881147,4.8805036 0 0 0 0,-5.16e-4 5.0881147,4.8805036 0 0 0 0,-5.19e-4 5.0881147,4.8805036 0 0 0 0,-5.16e-4 5.0881147,4.8805036 0 0 0 0,-5.16e-4 5.0881147,4.8805036 0 0 0 0,-5.16e-4 5.0881147,4.8805036 0 0 0 0,-5.18e-4 5.0881147,4.8805036 0 0 0 0,-5.16e-4 5.0881147,4.8805036 0 0 0 0,-5.16e-4 5.0881147,4.8805036 0 0 0 0,-5.19e-4 5.0881147,4.8805036 0 0 0 0,-5.15e-4 5.0881147,4.8805036 0 0 0 0,-5.16e-4 5.0881147,4.8805036 0 0 0 0,-5.19e-4 5.0881147,4.8805036 0 0 0 0,-5.16e-4 5.0881147,4.8805036 0 0 0 0,-5.16e-4 5.0881147,4.8805036 0 0 0 0,-5.18e-4 5.0881147,4.8805036 0 0 0 -0.1819,-1.224214 1.0879706,1.0744571 0 0 1 -0.61495,0.194304 1.0879706,1.0744571 0 0 1 -1.09657,-1.065051 1.0879706,1.0744571 0 0 1 0.69091,-1.009758 5.0881147,4.8805036 0 0 0 -1.00976,-0.870231 1.0879705,1.0744572 0 0 1 -0.98805,0.644404 1.0879705,1.0744572 0 0 1 -1.09709,-1.065051 1.0879705,1.0744572 0 0 1 0.0636,-0.36897 5.0881147,4.8805036 0 0 0 -0.88935,-0.07906 z m 0.03152,2.457214 a 2.5306372,2.4992048 0 0 1 2.548167,2.480988 2.5306372,2.4992048 0 0 1 -2.510443,2.517674 2.5306372,2.4992048 0 0 1 -2.550747,-2.477884 2.5306372,2.4992048 0 0 1 2.506824,-2.520259 z"
       inkscape:export-filename="/home/miquel/Rpackages/medfate/data-raw/medfate_logo_image.png"
       inkscape:export-xdpi="150"
       inkscape:export-ydpi="150" />
    <path
       id="path8631-6-9"
       style="fill:#241f1c;fill-opacity:1;stroke:none;stroke-width:0.71561;stroke-miterlimit:4;stroke-dasharray:none;stroke-opacity:1"
       d="m 106.65364,87.248277 a 3.2112468,3.0802179 0 0 0 -0.24917,0.01924 0.68664768,0.67811901 0 0 1 0.0427,0.229605 0.68664768,0.67811901 0 0 1 -0.68099,0.683271 0.68664768,0.67811901 0 0 1 -0.67316,-0.519221 3.2112468,3.0802179 0 0 0 -0.68458,0.50324 0.68664768,0.67811901 0 0 1 0.39072,0.606627 0.68664768,0.67811901 0 0 1 -0.68098,0.682947 0.68664768,0.67811901 0 0 1 -0.44943,-0.161116 3.2112468,3.0802179 0 0 0 -0.17873,0.766112 0.68664774,0.67811901 0 0 1 0.20058,-0.03163 h 0.002 a 0.68664774,0.67811901 0 0 1 0.69143,0.672836 0.68664774,0.67811901 0 0 1 -0.68099,0.683272 0.68664774,0.67811901 0 0 1 -0.0284,-0.001 3.2112468,3.0802179 0 0 0 0.37441,0.689467 0.68664774,0.67811901 0 0 1 0.48922,-0.209383 h 0.002 a 0.68664774,0.67811901 0 0 1 0.69142,0.673161 0.68664774,0.67811901 0 0 1 -0.16601,0.44649 3.2112468,3.0802179 0 0 0 0.85711,0.332015 0.68664774,0.67811907 0 0 1 0.68034,-0.683272 h 0.002 a 0.68664774,0.67811907 0 0 1 0.69142,0.673162 0.68664774,0.67811907 0 0 1 -10e-4,0.04338 3.2112468,3.0802179 0 0 0 0.81569,-0.259937 0.68664762,0.67811895 0 0 1 -0.15818,-0.426595 0.68664762,0.67811895 0 0 1 0.68034,-0.684251 h 0.002 a 0.68664762,0.67811895 0 0 1 0.55673,0.275918 3.2112468,3.0802179 0 0 0 0.39627,-0.608585 0.68664762,0.67811895 0 0 1 -0.51173,-0.649352 0.68664762,0.67811895 0 0 1 0.68002,-0.683923 h 0.002 a 0.68664762,0.67811895 0 0 1 0.13796,0.01337 3.2112468,3.0802179 0 0 0 0,-3.34e-4 3.2112468,3.0802179 0 0 0 0,-3.33e-4 3.2112468,3.0802179 0 0 0 0,-3.34e-4 3.2112468,3.0802179 0 0 0 0,-3.35e-4 3.2112468,3.0802179 0 0 0 0,-3.34e-4 3.2112468,3.0802179 0 0 0 0,-3.34e-4 3.2112468,3.0802179 0 0 0 0,-3.33e-4 3.2112468,3.0802179 0 0 0 0,-3.34e-4 3.2112468,3.0802179 0 0 0 0,-3.34e-4 3.2112468,3.0802179 0 0 0 0,-3.35e-4 3.2112468,3.0802179 0 0 0 0,-3.33e-4 3.2112468,3.0802179 0 0 0 0,-3.34e-4 3.2112468,3.0802179 0 0 0 0,-3.34e-4 3.2112468,3.0802179 0 0 0 0,-3.34e-4 3.2112468,3.0802179 0 0 0 0,-3.34e-4 3.2112468,3.0802179 0 0 0 0,-3.34e-4 3.2112468,3.0802179 0 0 0 0,-3.34e-4 3.2112468,3.0802179 0 0 0 0,-3.34e-4 3.2112468,3.0802179 0 0 0 0,-3.34e-4 3.2112468,3.0802179 0 0 0 0,-3.34e-4 3.2112468,3.0802179 0 0 0 0,-3.34e-4 3.2112468,3.0802179 0 0 0 0,-3.34e-4 3.2112468,3.0802179 0 0 0 0,-3.34e-4 3.2112468,3.0802179 0 0 0 0,-3.34e-4 3.2112468,3.0802179 0 0 0 0,-3.34e-4 3.2112468,3.0802179 0 0 0 0,-3.34e-4 3.2112468,3.0802179 0 0 0 0,-3.34e-4 3.2112468,3.0802179 0 0 0 0,-3.34e-4 3.2112468,3.0802179 0 0 0 0,-3.34e-4 3.2112468,3.0802179 0 0 0 0,-3.34e-4 3.2112468,3.0802179 0 0 0 0,-3.34e-4 3.2112468,3.0802179 0 0 0 0,-3.34e-4 3.2112468,3.0802179 0 0 0 0,-3.33e-4 3.2112468,3.0802179 0 0 0 0,-3.35e-4 3.2112468,3.0802179 0 0 0 0,-3.34e-4 3.2112468,3.0802179 0 0 0 0,-3.34e-4 3.2112468,3.0802179 0 0 0 0,-3.34e-4 3.2112468,3.0802179 0 0 0 0,-3.33e-4 3.2112468,3.0802179 0 0 0 0,-3.34e-4 3.2112468,3.0802179 0 0 0 0,-3.35e-4 3.2112468,3.0802179 0 0 0 0,-3.34e-4 3.2112468,3.0802179 0 0 0 0,-3.33e-4 3.2112468,3.0802179 0 0 0 0,-3.34e-4 3.2112468,3.0802179 0 0 0 0,-3.34e-4 3.2112468,3.0802179 0 0 0 0,-3.34e-4 3.2112468,3.0802179 0 0 0 0,-3.35e-4 3.2112468,3.0802179 0 0 0 0,-3.33e-4 3.2112468,3.0802179 0 0 0 0,-3.34e-4 3.2112468,3.0802179 0 0 0 0,-3.34e-4 3.2112468,3.0802179 0 0 0 0,-3.34e-4 3.2112468,3.0802179 0 0 0 0,-3.34e-4 3.2112468,3.0802179 0 0 0 0,-3.34e-4 3.2112468,3.0802179 0 0 0 0,-3.34e-4 3.2112468,3.0802179 0 0 0 0,-3.34e-4 3.2112468,3.0802179 0 0 0 0,-3.34e-4 3.2112468,3.0802179 0 0 0 0,-3.34e-4 3.2112468,3.0802179 0 0 0 0,-3.34e-4 3.2112468,3.0802179 0 0 0 0,-3.34e-4 3.2112468,3.0802179 0 0 0 -0.11481,-0.772634 0.68664768,0.67811895 0 0 1 -0.38811,0.12263 0.68664768,0.67811895 0 0 1 -0.69208,-0.672182 0.68664768,0.67811895 0 0 1 0.43606,-0.637286 3.2112468,3.0802179 0 0 0 -0.63729,-0.549226 0.68664762,0.67811901 0 0 1 -0.62358,0.406701 0.68664762,0.67811901 0 0 1 -0.6924,-0.672183 0.68664762,0.67811901 0 0 1 0.0401,-0.232867 3.2112468,3.0802179 0 0 0 -0.56129,-0.0499 z m 0.0199,1.550814 a 1.5971536,1.5773158 0 0 1 1.60821,1.565818 1.5971536,1.5773158 0 0 1 -1.58441,1.588973 1.5971536,1.5773158 0 0 1 -1.60984,-1.563859 1.5971536,1.5773158 0 0 1 1.58212,-1.590604 z"
       inkscape:export-filename="/home/miquel/Rpackages/medfate/data-raw/medfate_logo_image.png"
       inkscape:export-xdpi="150"
       inkscape:export-ydpi="150" />
    <path
       id="path8631-6-9-5"
       style="fill:#241f1c;fill-opacity:1;stroke:none;stroke-width:0.503007;stroke-miterlimit:4;stroke-dasharray:none;stroke-opacity:1"
       d="m 107.01655,94.113007 a 2.2572085,2.1651073 0 0 0 -0.17514,0.01352 0.48264959,0.47665473 0 0 1 0.03,0.161391 0.48264959,0.47665473 0 0 1 -0.47868,0.480276 0.48264959,0.47665473 0 0 1 -0.47317,-0.364964 2.2572085,2.1651073 0 0 0 -0.48119,0.353731 0.48264959,0.47665473 0 0 1 0.27464,0.426403 0.48264959,0.47665473 0 0 1 -0.47867,0.480048 0.48264959,0.47665473 0 0 1 -0.31591,-0.11325 2.2572085,2.1651073 0 0 0 -0.12563,0.538506 0.48264963,0.47665473 0 0 1 0.14099,-0.02223 h 0.001 a 0.48264963,0.47665473 0 0 1 0.48601,0.472941 0.48264963,0.47665473 0 0 1 -0.47867,0.480277 0.48264963,0.47665473 0 0 1 -0.02,-7.03e-4 2.2572085,2.1651073 0 0 0 0.26318,0.484632 0.48264963,0.47665473 0 0 1 0.34388,-0.147177 h 0.001 a 0.48264963,0.47665473 0 0 1 0.48601,0.47317 0.48264963,0.47665473 0 0 1 -0.11669,0.313841 2.2572085,2.1651073 0 0 0 0.60247,0.233375 0.48264963,0.47665477 0 0 1 0.47821,-0.480277 h 0.001 a 0.48264963,0.47665477 0 0 1 0.486,0.473171 0.48264963,0.47665477 0 0 1 -7e-4,0.03049 2.2572085,2.1651073 0 0 0 0.57335,-0.182712 0.48264955,0.47665468 0 0 1 -0.11118,-0.299856 0.48264955,0.47665468 0 0 1 0.47821,-0.480965 h 0.001 a 0.48264955,0.47665468 0 0 1 0.39133,0.193945 2.2572085,2.1651073 0 0 0 0.27854,-0.427779 0.48264955,0.47665468 0 0 1 -0.3597,-0.456434 0.48264955,0.47665468 0 0 1 0.47799,-0.480735 h 0.001 a 0.48264955,0.47665468 0 0 1 0.097,0.0094 2.2572085,2.1651073 0 0 0 0,-2.35e-4 2.2572085,2.1651073 0 0 0 0,-2.34e-4 2.2572085,2.1651073 0 0 0 0,-2.35e-4 2.2572085,2.1651073 0 0 0 0,-2.35e-4 2.2572085,2.1651073 0 0 0 0,-2.35e-4 2.2572085,2.1651073 0 0 0 0,-2.35e-4 2.2572085,2.1651073 0 0 0 0,-2.34e-4 2.2572085,2.1651073 0 0 0 0,-2.34e-4 2.2572085,2.1651073 0 0 0 0,-2.35e-4 2.2572085,2.1651073 0 0 0 0,-2.36e-4 2.2572085,2.1651073 0 0 0 0,-2.34e-4 2.2572085,2.1651073 0 0 0 0,-2.35e-4 2.2572085,2.1651073 0 0 0 0,-2.34e-4 2.2572085,2.1651073 0 0 0 0,-2.35e-4 2.2572085,2.1651073 0 0 0 0,-2.35e-4 2.2572085,2.1651073 0 0 0 0,-2.35e-4 2.2572085,2.1651073 0 0 0 0,-2.34e-4 2.2572085,2.1651073 0 0 0 0,-2.35e-4 2.2572085,2.1651073 0 0 0 0,-2.35e-4 2.2572085,2.1651073 0 0 0 0,-2.35e-4 2.2572085,2.1651073 0 0 0 0,-2.34e-4 2.2572085,2.1651073 0 0 0 0,-2.35e-4 2.2572085,2.1651073 0 0 0 0,-2.35e-4 2.2572085,2.1651073 0 0 0 0,-2.35e-4 2.2572085,2.1651073 0 0 0 0,-2.35e-4 2.2572085,2.1651073 0 0 0 0,-2.34e-4 2.2572085,2.1651073 0 0 0 0,-2.35e-4 2.2572085,2.1651073 0 0 0 0,-2.35e-4 2.2572085,2.1651073 0 0 0 0,-2.35e-4 2.2572085,2.1651073 0 0 0 0,-2.34e-4 2.2572085,2.1651073 0 0 0 0,-2.35e-4 2.2572085,2.1651073 0 0 0 0,-2.35e-4 2.2572085,2.1651073 0 0 0 0,-2.34e-4 2.2572085,2.1651073 0 0 0 0,-2.35e-4 2.2572085,2.1651073 0 0 0 0,-2.35e-4 2.2572085,2.1651073 0 0 0 0,-2.35e-4 2.2572085,2.1651073 0 0 0 0,-2.35e-4 2.2572085,2.1651073 0 0 0 0,-2.34e-4 2.2572085,2.1651073 0 0 0 0,-2.35e-4 2.2572085,2.1651073 0 0 0 0,-2.35e-4 2.2572085,2.1651073 0 0 0 0,-2.35e-4 2.2572085,2.1651073 0 0 0 0,-2.34e-4 2.2572085,2.1651073 0 0 0 0,-2.35e-4 2.2572085,2.1651073 0 0 0 0,-2.34e-4 2.2572085,2.1651073 0 0 0 0,-2.35e-4 2.2572085,2.1651073 0 0 0 0,-2.36e-4 2.2572085,2.1651073 0 0 0 0,-2.34e-4 2.2572085,2.1651073 0 0 0 0,-2.35e-4 2.2572085,2.1651073 0 0 0 0,-2.34e-4 2.2572085,2.1651073 0 0 0 0,-2.35e-4 2.2572085,2.1651073 0 0 0 0,-2.35e-4 2.2572085,2.1651073 0 0 0 0,-2.35e-4 2.2572085,2.1651073 0 0 0 0,-2.34e-4 2.2572085,2.1651073 0 0 0 0,-2.35e-4 2.2572085,2.1651073 0 0 0 0,-2.35e-4 2.2572085,2.1651073 0 0 0 0,-2.35e-4 2.2572085,2.1651073 0 0 0 0,-2.35e-4 2.2572085,2.1651073 0 0 0 0,-2.34e-4 2.2572085,2.1651073 0 0 0 -0.0807,-0.54309 0.48264959,0.47665468 0 0 1 -0.27281,0.0862 0.48264959,0.47665468 0 0 1 -0.48646,-0.472481 0.48264959,0.47665468 0 0 1 0.30651,-0.447953 2.2572085,2.1651073 0 0 0 -0.44796,-0.386055 0.48264955,0.47665473 0 0 1 -0.43832,0.285873 0.48264955,0.47665473 0 0 1 -0.48669,-0.472482 0.48264955,0.47665473 0 0 1 0.0282,-0.163684 2.2572085,2.1651073 0 0 0 -0.39453,-0.03507 z m 0.014,1.090079 a 1.1226507,1.1087066 0 0 1 1.13043,1.100624 1.1226507,1.1087066 0 0 1 -1.1137,1.116901 1.1226507,1.1087066 0 0 1 -1.13157,-1.099248 1.1226507,1.1087066 0 0 1 1.11209,-1.118047 z"
       inkscape:export-filename="/home/miquel/Rpackages/medfate/data-raw/medfate_logo_image.png"
       inkscape:export-xdpi="150"
       inkscape:export-ydpi="150" />
  </g>
  <g
     inkscape:label="Capa 1"
     inkscape:groupmode="layer"
     id="layer1">
    <path
       style="fill:#008000;stroke:#000000;stroke-width:0.264583px;stroke-linecap:butt;stroke-linejoin:miter;stroke-opacity:1"
       d="m 57.325368,73.604643 c -1.874249,0.145118 -3.775872,0.220017 -5.592128,0.739875 -0.852154,0.243908 -1.729684,0.558122 -2.375588,1.186497 -0.66601,0.647936 -0.932503,1.615839 -0.888632,2.525067 0.06161,1.276756 0.578973,2.503658 1.328822,3.523809 0.549756,0.747929 1.206994,1.490794 2.083367,1.830776 0.539189,0.209174 1.092235,0.381661 1.63701,0.576497 3.434983,1.228503 6.84443,2.616773 10.452628,3.257886 2.391503,0.424928 4.902358,0.50373 7.244493,-0.209576 2.194086,-0.668217 4.219022,-1.766962 6.326412,-2.653309 0.869372,-0.365649 1.731337,-0.792635 2.658948,-0.966906 0.817227,-0.153533 1.647445,-0.222497 2.47002,-0.341359 0.84137,-0.121578 1.709129,-0.181666 2.503912,-0.491409 0.217292,-0.08468 0.532504,-0.134976 0.602553,-0.371818 0.563426,-1.904996 0.768463,-3.985269 0.179184,-5.913728 -0.506489,-1.657522 -1.674711,-3.052996 -3.103057,-4.009277 -1.961591,-1.31329 -4.288263,-1.969363 -6.604772,-2.287024 -3.437432,-0.471372 -6.950468,-0.31838 -10.35141,0.333548 -2.422552,0.46438 -4.840357,1.125003 -7.025038,2.290595 -0.538868,0.287502 -1.061605,0.607991 -1.546724,0.979856 z"
       id="path889"
       inkscape:path-effect="#path-effect891"
       inkscape:original-d="m 57.325368,73.604643 c -1.941918,0.170437 -6.945302,0.287356 -8.306541,2.329214 -1.706666,2.56 0.877366,6.827608 3.097705,7.567721 5.878052,1.959351 13.124796,5.550739 19.552046,3.391453 2.82811,-0.950127 5.421675,-2.546358 8.420775,-3.449312 0.803023,-0.241771 5.481301,-0.505251 5.701382,-1.268457 4.51767,-15.666546 -21.320654,-14.056164 -28.465367,-8.570619 z"
       inkscape:export-filename="/home/miquel/Rpackages/medfate/data-raw/medfate_logo_image.png"
       inkscape:export-xdpi="150"
       inkscape:export-ydpi="150" />
    <path
       style="fill:#784421;stroke:#000000;stroke-width:0.264583px;stroke-linecap:butt;stroke-linejoin:miter;stroke-opacity:1"
       d="m 65.52472,87.09517 c -0.244623,1.352852 -0.04004,2.731495 -0.127916,4.094251 -0.02659,0.412377 -0.02903,0.838774 -0.169566,1.228664 -0.189496,0.525728 -0.526401,0.978255 -0.78691,1.468932 -0.199747,0.37623 -0.34163,0.785889 -0.372899,1.215195 -0.05152,0.70728 0.04814,1.425962 -0.09574,2.125191 -0.06865,0.333627 -0.273765,0.61456 -0.408041,0.922716 -0.137267,0.315021 -0.264833,0.638377 -0.337487,0.974234 -0.216504,1.000827 0.139156,2.047897 -0.12264,3.035047 -0.08153,0.30744 -0.337313,0.52688 -0.580865,0.70976 -0.690052,0.51815 -1.471127,0.89777 -2.249601,1.26216 -0.885645,0.41456 -1.818105,0.72344 -2.697434,1.15019 -0.657611,0.31915 -1.161053,0.82903 -1.773148,1.24961 -0.146367,0.10057 0.180921,0.1477 0.264041,0.16713 0.312192,0.073 0.6333,0.0658 0.951612,0.0784 0.514156,0.0204 1.050674,0.0105 1.524523,-0.22538 0.509555,-0.25362 1.074825,-0.36126 1.603827,-0.56363 0.275801,-0.10551 0.255524,-0.47382 0.500497,-0.61489 0.399967,-0.23032 0.849714,-0.35792 1.295092,-0.46645 0.689716,-0.16807 1.395044,-0.31618 2.107326,-0.29998 0.244889,0.006 0.495897,0.052 0.697366,0.21265 0.278299,0.22185 0.36282,0.59276 0.361515,0.935 -0.002,0.52047 -0.173142,1.05353 -0.0153,1.56435 0.261403,0.84596 0.738549,1.62048 1.346603,2.25953 0.468682,0.49257 1.059614,0.84379 1.686915,1.12812 0.1705,0.0773 0.300172,-0.0784 0.259913,-0.25513 -0.0884,-0.38811 -0.314808,-0.72532 -0.49886,-1.07332 -0.08922,-0.1687 -0.233122,-0.31552 -0.274825,-0.50321 -0.128696,-0.57923 0.108908,-1.16947 0.01458,-1.74925 -0.106897,-0.65703 -0.51586,-1.20547 -0.882,-1.74326 -0.199221,-0.29262 -0.430007,-0.57468 -0.542837,-0.91621 -0.05268,-0.15946 0.033,-0.33433 0.186731,-0.40218 0.337679,-0.14904 0.718548,-0.1461 1.079862,-0.13747 0.607312,0.0145 1.218545,0.0336 1.816362,0.13982 0.190946,0.0339 0.439134,0.009 0.562413,0.16552 0.143288,0.18203 -0.04035,0.42426 0.05832,0.61987 0.188981,0.37464 0.499853,0.66891 0.79526,0.95935 0.547804,0.53859 1.168254,1.00511 1.670089,1.58811 0.641413,0.74515 0.843009,1.758 1.495796,2.50013 0.245562,0.27917 0.586117,0.44704 0.935006,0.56026 0.372233,0.1208 0.725022,0.29603 1.043204,0.5259 0.59185,0.42759 1.005994,1.21221 1.722731,1.35301 0.06653,0.0131 0.144439,0.26407 0.07564,0.12925 -0.116314,-0.22794 -0.215729,-0.46682 -0.400761,-0.65546 -0.547339,-0.558 -0.98774,-1.21359 -1.332531,-1.91375 -0.202642,-0.4115 -0.583519,-0.68174 -0.926414,-0.96716 -0.235311,-0.19587 -0.407915,-0.45138 -0.542643,-0.72706 -0.153021,-0.31311 -0.250675,-0.67036 -0.494812,-0.92335 -0.296647,-0.3074 -0.753343,-0.46123 -0.954252,-0.85286 -0.306081,-0.59664 -0.326418,-1.31319 -0.730806,-1.86433 -0.229629,-0.31296 -0.574625,-0.50971 -0.897036,-0.71139 -1.101373,-0.68895 -2.250073,-1.31325 -3.461433,-1.77424 -0.364996,-0.1389 -0.803399,-0.0879 -1.122218,-0.32752 -0.166728,-0.1253 -0.160582,-0.36135 -0.161107,-0.54864 -0.0011,-0.38596 0.08557,-0.7671 0.07714,-1.15304 -0.0045,-0.2055 -0.224519,-0.284756 -0.319509,-0.438045 -0.100263,-0.161799 -0.0062,-0.351743 0.0432,-0.513358 0.321028,-1.050067 0.988683,-1.968165 1.239207,-3.039792 0.233863,-1.000357 -0.211955,-2.033875 0.04017,-3.026253 0.265206,-1.043874 0.415457,-2.114924 0.467427,-3.190586 0.04515,-0.934408 0.02543,-1.870202 0.02579,-2.805253"
       id="path897"
       inkscape:path-effect="#path-effect899"
       inkscape:original-d="m 65.52472,87.09517 c -0.307379,1.662758 0.07708,3.501943 -0.256288,5.168776 -0.12886,0.644295 -0.887984,1.462106 -1.128631,2.358887 -0.21029,0.783656 0.0698,2.240838 -0.282249,2.940817 -0.337153,0.670357 -0.329793,0.611016 -0.565613,1.322237 -0.331174,0.998797 0.01654,2.248823 -0.188415,3.273513 -0.228367,1.14184 -5.130726,2.91424 -5.583066,3.14851 -0.591735,0.30648 -1.056296,0.99306 -1.717982,1.22321 -0.271243,0.0944 0.541023,0.23738 0.828207,0.23738 0.637664,0 1.268333,0.0991 1.860405,-0.19213 0.553399,-0.27221 0.99574,-0.39608 1.592987,-0.56672 0.359026,-0.10258 0.282638,-0.45028 0.547441,-0.62681 0.643295,-0.42887 3.389429,-1.03129 3.977836,-0.66353 0.923113,0.57694 0.235051,1.72951 0.474745,2.56844 0.372086,1.3023 1.612579,2.94586 2.95825,3.39442 0.968164,0.32272 -0.359825,-1.59517 -0.408725,-1.73764 -0.166696,-0.48569 0.06296,-1.26994 0,-1.77361 -0.244793,-1.95836 -3.700421,-3.63392 1.037391,-3.16707 0.2769,0.0273 0.878374,0.0602 1.126032,0.1899 0.216832,0.11352 0.02612,0.45215 0.09495,0.62421 0.27967,0.69918 2.005283,1.98007 2.548412,2.6634 0.522067,0.65682 0.734544,1.5199 1.230254,2.18085 0.616177,0.82157 1.059566,0.66559 1.831845,1.09711 0.43348,0.24221 2.178386,1.60862 2.184196,1.70944 0.01246,0.21642 -0.188253,-0.40015 -0.341595,-0.55337 -0.633471,-0.63298 -1.047314,-1.24427 -1.417926,-1.98502 -0.350187,-0.69993 -0.944388,-0.84875 -1.329285,-1.42609 -0.153612,-0.23042 -0.436335,-1.01048 -0.673542,-1.24769 -0.267573,-0.26757 -0.759746,-0.48995 -0.940589,-0.84564 -0.354033,-0.69631 -0.322077,-1.63899 -1.045548,-2.1701 -1.184402,-0.86947 -2.640648,-1.46828 -3.973388,-2.13597 -0.309817,-0.15522 -0.936123,-0.14935 -1.210596,-0.37535 -0.294579,-0.24255 -0.0047,-1.37457 -0.06157,-1.71538 -0.05026,-0.300943 -0.435996,-0.291484 -0.344191,-0.658712 0.2779,-1.111594 0.963565,-2.105779 1.278472,-3.174109 0.311536,-1.056896 -0.171471,-2.180756 0.09606,-3.250885 0.549402,-2.19761 0.470292,-3.899603 0.470292,-5.895361"
       inkscape:export-filename="/home/miquel/Rpackages/medfate/data-raw/medfate_logo_image.png"
       inkscape:export-xdpi="150"
       inkscape:export-ydpi="150" />
    <g
       id="g10578"
       transform="translate(3.7041668)"
       inkscape:export-filename="/home/miquel/Rpackages/medfate/data-raw/medfate_logo_image.png"
       inkscape:export-xdpi="150"
       inkscape:export-ydpi="150">
      <path
         style="fill:#008000;stroke:#000000;stroke-width:0.264583px;stroke-linecap:butt;stroke-linejoin:miter;stroke-opacity:1"
         d="m 75.343209,102.49042 c -0.436078,-0.23884 -0.825177,-0.57035 -1.10602,-0.98315 -0.311033,-0.45718 -0.534092,-0.98634 -0.585556,-1.532872 -0.02401,-0.254945 -0.0013,-0.518874 -0.07779,-0.764815 -0.01768,-0.05685 -0.02886,-0.145321 -0.09364,-0.155414 -0.03433,-0.0054 0.04715,0.02268 0.06265,0.02995 0.05884,0.02758 0.139035,0.03279 0.175247,0.08736 0.04033,0.06076 0.03316,0.138563 0.03257,0.208175 -4.94e-4,0.0585 -0.03338,0.122795 -0.0077,0.175325 0.04905,0.100322 0.164759,0.163702 0.187699,0.275639 0.08463,0.412942 0.140713,0.837952 0.314449,1.226142 0.113925,0.25455 0.295523,0.4851 0.53991,0.62441 0.148709,0.0848 0.297845,0.16811 0.449333,0.24923 0.06151,0.0329 0.005,0.0719 -0.0384,0.0855 -0.05769,0.0181 -0.102067,0.0759 -0.08481,0.1385 0.03177,0.11529 0.135003,0.19256 0.192857,0.29397 0.03371,0.0591 0.09838,0.0734 0.16273,0.0412 0.06262,-0.0314 0.117938,-0.0847 0.189301,-0.0927 0.02761,-0.003 0.06923,0.0854 0.03294,0.0337 -0.03039,-0.0433 -0.09052,-0.0557 -0.106602,0.013 -0.01095,0.0468 -0.03813,0.10792 -0.09509,0.10173 -0.07159,-0.008 -0.142003,-0.0415 -0.1923,-0.092 -0.103762,-0.10412 -0.142818,-0.25361 -0.165588,-0.39399 -0.05505,-0.33943 -0.04225,-0.68499 -0.03404,-1.02737 0.0084,-0.34871 0.03531,-0.69845 0.0071,-1.046784 -0.0087,-0.10803 -0.03527,-0.213174 -0.06914,-0.316718 -0.07749,-0.236877 -0.04576,-0.489494 -0.03223,-0.733261 0.009,-0.162001 0.01046,-0.326686 -0.03294,-0.485016 -0.09312,-0.339711 -0.216537,-0.670426 -0.348681,-0.996554 -0.129391,-0.319333 -0.253241,-0.643021 -0.422525,-0.943512 -0.05703,-0.101236 -0.12456,-0.196731 -0.170324,-0.304176 -0.0485,-0.113877 -0.09511,-0.238741 -0.07193,-0.364095 0.01388,-0.07508 0.08442,-0.163714 0.162702,-0.142496 0.06859,0.01859 0.09623,0.09424 0.114958,0.155255 0.07032,0.229098 0.08046,0.470481 0.144115,0.701746 0.123781,0.449689 0.189258,0.919032 0.37359,1.348802 0.113786,0.265292 0.341708,0.465368 0.439693,0.738859 0.07824,0.218383 0.05904,0.454932 0.04925,0.682302 -0.01006,0.233572 -0.04935,0.480594 0.03788,0.701638 0.06652,0.16857 0.131856,0.3403 0.151996,0.52174 0.014,0.12611 0.01068,0.2531 0.01739,0.37979 0.01395,0.26333 0.05363,0.5374 -0.02954,0.79168 -0.02371,0.0725 -0.0507,0.14396 -0.06256,0.21993 -0.01282,0.0821 -0.06984,0.319 -0.02507,0.24856 0.0392,-0.0617 0.0601,-0.1643 0.08324,-0.24361 0.267255,-0.91601 0.344714,-1.87077 0.472055,-2.812396 0.04152,-0.307038 0.103882,-0.610712 0.152977,-0.916587 0.07463,-0.464969 0.01174,-0.935989 -0.02798,-1.400993 -0.03288,-0.384959 -0.04424,-0.776697 0.03779,-1.157403 0.108781,-0.504836 0.330152,-0.979318 0.419123,-1.488795 0.03175,-0.181816 0.07881,-0.35971 0.14753,-0.535274 0.0213,-0.05443 0.07982,-0.07796 0.129751,-0.03567 0.07135,0.06042 0.133753,0.136944 0.156153,0.230083 0.04739,0.197038 0.04494,0.402054 0.03744,0.603122 -0.02279,0.61149 -0.11952,1.216639 -0.193559,1.823234 -0.04947,0.405318 -0.122259,0.807476 -0.200367,1.208086 -0.100645,0.516198 -0.193711,1.035582 -0.343628,1.539959 -0.03773,0.126928 -0.106798,0.243393 -0.138295,0.372776 -0.03022,0.124155 -0.03566,0.252884 -0.04264,0.379996 -0.03296,0.599542 -0.0047,1.201542 -0.04573,1.800462 -0.01531,0.22326 -0.05302,0.44839 -0.138592,0.6553 -0.04277,0.10342 -0.09028,0.21853 -0.190075,0.27864 -0.06176,0.0372 -0.135602,0.0189 -0.202105,0.0107 -0.02882,-0.004 -0.106788,-0.0108 -0.09677,-0.0112 0.109044,-0.004 0.231644,0.0285 0.326928,-0.0266 0.100545,-0.0581 0.191469,-0.13178 0.282532,-0.20357 0.117696,-0.0928 0.254431,-0.16713 0.34947,-0.28305 0.195462,-0.2384 0.315572,-0.52677 0.417828,-0.81452 0.118247,-0.33275 0.216787,-0.67213 0.341218,-1.00283 0.202827,-0.539053 0.417929,-1.073232 0.643049,-1.603387 0.157987,-0.372058 0.47179,-0.656299 0.616125,-1.034434 0.146306,-0.3833 0.263843,-0.778846 0.439453,-1.149782 0.02065,-0.04363 0.03625,-0.103315 0.09602,-0.104966 0.06052,-0.0017 0.06959,0.07426 0.07028,0.119838 0.0029,0.192475 -0.03818,0.38185 -0.06466,0.571631 -0.0238,0.170573 -0.0089,0.343189 4.42e-4,0.514225 0.02031,0.373821 0.05816,0.752259 -0.0062,1.123988 -0.02868,0.165529 -0.09237,0.322583 -0.174781,0.4693 -0.428007,0.761939 -0.764603,1.579897 -1.286755,2.285047 -0.03526,0.0476 -0.06783,0.0992 -0.12204,0.12865 -0.176177,0.0958 -0.367277,0.15956 -0.554918,0.22858 -0.246195,0.0906 -0.509046,0.14672 -0.736312,0.27828 -0.04388,0.0254 -0.179362,0.0798 -0.126563,0.0913 0.05209,0.0113 0.109783,-0.0174 0.161106,-0.0323 0.113787,-0.0331 0.22289,-0.0991 0.341676,-0.0993 0.351433,-4.2e-4 0.688352,-0.12196 1.005976,-0.26211 0.217324,-0.0959 0.416673,-0.23235 0.580756,-0.40487 0.331456,-0.3485 0.559313,-0.77953 0.750816,-1.2167 0.141891,-0.323909 0.241442,-0.664636 0.378335,-0.990462 0.08798,-0.209413 0.264404,-0.360765 0.415357,-0.523871 0.123859,-0.133831 0.251647,-0.288548 0.263959,-0.4778 0.002,-0.03068 -0.0148,-0.04613 0.0016,-0.01177 0.09301,0.194924 0.160174,0.404359 0.184779,0.619693 0.0192,0.168046 0.02719,0.341676 -0.02286,0.505849 -0.08318,0.272851 -0.25487,0.505792 -0.417675,0.73568 -0.156097,0.220411 -0.305872,0.447821 -0.404666,0.701931 -0.174457,0.44873 -0.446899,0.86892 -0.831905,1.16568 -0.369464,0.28478 -0.823168,0.43323 -1.276901,0.51803 -0.426439,0.0797 -0.859669,0.11172 -1.290206,0.16079"
         id="path1306"
         inkscape:path-effect="#path-effect1308"
         inkscape:original-d="m 75.343209,102.49042 c -1.003895,-0.55564 -1.467717,-1.36053 -1.689237,-2.501493 -0.02614,-0.134586 -0.01183,-0.937064 -0.189897,-0.937064 -1.93e-4,0 0.211833,0.08389 0.247571,0.113308 0.07279,0.05993 0.02154,0.360547 0.03134,0.389808 0.02196,0.06562 0.1704,0.187364 0.189897,0.284847 0.142653,0.713264 0.224814,1.531164 0.932241,1.884884 0.973037,0.48652 -0.227322,0.025 0.478083,0.76571 0.07506,0.0788 0.204888,-0.0797 0.312849,-0.0935 0.02429,-0.003 0.06923,0.0692 0.05192,0.0519 -0.215043,-0.21504 -0.01775,0.24974 -0.364774,0.0415 -0.487674,-0.29261 -0.08564,-2.25941 -0.295417,-2.782631 -0.132681,-0.330928 -0.01244,-0.746938 -0.04748,-1.09896 -0.03421,-0.343694 -0.636111,-1.8585 -0.862885,-2.198659 -0.08763,-0.131439 -0.314987,-0.55863 -0.09792,-0.691345 0.234913,-0.143627 0.240708,0.498318 0.316188,0.763113 0.128799,0.451859 0.221157,0.955776 0.381833,1.39141 0.10146,0.275079 0.357251,0.490844 0.459725,0.791858 0.137168,0.402934 -0.06464,1.016987 0.09699,1.409954 0.07939,0.19302 0.143351,0.39528 0.143351,0.61809 0,0.34209 0.08216,0.78289 -0.04747,1.10582 -0.04645,0.11571 -0.08575,0.48956 -0.04692,0.37108 0.417023,-1.27246 0.419164,-2.570748 0.680406,-3.876951 0.16152,-0.807601 -0.147413,-1.70557 0,-2.51633 0.09718,-0.534474 0.319132,-1.007621 0.429495,-1.534758 0.0366,-0.174797 0.05699,-0.502513 0.19713,-0.654444 0.05233,-0.05673 0.149485,0.06102 0.196758,0.122026 0.242729,0.313205 -0.06093,2.164027 -0.104407,2.555271 -0.06581,0.592331 -0.489003,2.822461 -0.674283,3.096038 -0.07581,0.111932 -0.09439,1.914378 -0.09439,2.159348 0,0.23481 -0.140322,1.01164 -0.414845,0.99028 -0.504749,-0.0393 -0.01479,-0.001 0.113308,-0.0469 0.06311,-0.0226 0.608449,-0.45852 0.632002,-0.48662 0.306316,-0.36536 0.473157,-0.98537 0.625885,-1.44296 0.225899,-0.676825 0.516342,-1.28648 0.762929,-1.944041 0.13521,-0.360561 0.481369,-0.698873 0.629406,-1.068173 0.05756,-0.143582 0.440267,-1.212432 0.486426,-1.237859 0.242557,-0.133622 0.04247,0.552762 0.04247,0.829689 0,0.615053 0.158089,1.379577 -0.136858,1.896752 -0.450104,0.789226 -0.820547,1.677192 -1.376204,2.419522 -0.118967,0.15894 -1.481904,0.52652 -1.481904,0.64796 0,0.0358 0.431419,-0.13204 0.511275,-0.13204 0.321329,0 0.641117,-0.10813 0.935765,-0.23441 0.337114,-0.14447 0.543483,-0.29724 0.788337,-0.59844 0.445156,-0.54759 0.745537,-1.360748 0.973039,-2.013578 0.136126,-0.390623 0.691161,-0.640257 0.691161,-1.068546 0,-0.01013 0,0.02027 0,0.03041 0.135504,0.27741 0.200284,0.565152 0.200284,0.87123 0,0.574416 -0.632904,1.082834 -0.837295,1.628414 -0.657458,1.75494 -2.037924,1.74873 -3.422422,1.90547"
         inkscape:export-filename="/home/miquel/Rpackages/medfate/data-raw/medfate_logo_image.png"
         inkscape:export-xdpi="150"
         inkscape:export-ydpi="150" />
      <path
         style="fill:#784421;fill-opacity:1;stroke:#000000;stroke-width:0.1;stroke-linecap:butt;stroke-linejoin:miter;stroke-miterlimit:4;stroke-dasharray:none;stroke-opacity:1"
         d="m 75.343207,102.49042 c -0.08267,0.15176 -0.20951,0.27645 -0.356931,0.36577 -0.217132,0.13156 -0.464393,0.20597 -0.674176,0.35122 -0.125655,0.087 -0.229545,0.20053 -0.331279,0.31334 -0.156083,0.17307 -0.315365,0.34703 -0.434162,0.54771 -0.06414,0.10835 -0.03384,0.24107 -0.07435,0.35631 -0.02338,0.0665 -0.08281,0.10967 -0.127091,0.16165 -0.03305,0.0388 -0.07221,0.082 -0.07136,0.13669 8.45e-4,0.0548 0.06154,0.0617 0.101886,0.0347 0.08711,-0.0583 0.15541,-0.1398 0.220403,-0.22081 0.201848,-0.25159 0.375072,-0.5243 0.553418,-0.79269 0.06525,-0.0982 0.122147,-0.20374 0.208774,-0.28581 0.155998,-0.1478 0.357449,-0.23176 0.550806,-0.3186 0.150607,-0.0676 0.308386,-0.13052 0.432382,-0.24257 0.03299,-0.0298 0.109035,-0.13939 0.08592,-0.10144 -0.03197,0.0525 -0.05896,0.10861 -0.06816,0.17029 -0.01589,0.1065 -0.0083,0.2197 -0.06124,0.31809 -0.06538,0.12161 -0.07814,0.26112 -0.104376,0.39436 -0.01801,0.0915 -0.04958,0.17979 -0.09646,0.26117 -0.20515,0.3562 -0.426432,0.70816 -0.560129,1.09907 -0.04332,0.12666 -0.0834,0.25541 -0.09997,0.3888 -0.01538,0.12382 -0.02631,0.2489 -0.01926,0.37397 0.0022,0.0399 0.01676,0.0816 0.06343,0.0936 0.06734,0.0173 0.13109,-0.0269 0.168969,-0.0794 0.06632,-0.0919 0.08017,-0.20871 0.11949,-0.31379 0.0154,-0.0412 -0.01848,-0.12916 0.03293,-0.12941 0.0543,-2.6e-4 0.07828,-0.0531 0.09403,-0.0969 0.06638,-0.18463 0.06149,-0.3843 0.113964,-0.57274 0.108137,-0.38835 0.317165,-0.74076 0.412977,-1.13322 0.03562,-0.1459 0.04494,-0.29645 0.04475,-0.44657 -1.97e-4,-0.15104 -0.01119,-0.30564 0.02633,-0.45257 0.01044,-0.0409 0.01171,-0.11138 0.05695,-0.11485 0.03308,-0.003 0.03629,0.0543 0.04307,0.0806 0.04,0.155 0.08281,0.31086 0.09636,0.47036 0.03283,0.38665 0.08321,0.77343 0.07417,1.162 -0.0034,0.14437 -0.01788,0.2891 -0.05872,0.42904 -0.05754,0.19712 -0.08507,0.40385 -0.07567,0.60914 0.0049,0.10741 0.02807,0.21344 0.0681,0.31354 0.05228,0.13074 0.09573,0.26966 0.18253,0.38111 0.02344,0.0301 0.05525,0.0891 0.102135,0.0647 0.06735,-0.035 0.147652,-0.0616 0.190555,-0.12675 0.02458,-0.0373 0.0099,-0.0842 0.001,-0.12416 -0.04532,-0.20242 -0.109557,-0.39992 -0.162052,-0.60052 -0.03514,-0.13428 -0.06009,-0.27112 -0.07126,-0.40972 -0.02059,-0.25562 1.75e-4,-0.51268 -0.01461,-0.76838 -0.01594,-0.27555 -0.04133,-0.55061 -0.07565,-0.82443 -0.02365,-0.18865 -0.01377,-0.38854 -0.08851,-0.56362 -0.01411,-0.033 -0.03975,-0.14246 -0.05767,-0.10178 -0.0173,0.0393 0.0087,0.0854 0.02406,0.12251 0.07986,0.19265 0.12526,0.39894 0.215793,0.5868 0.0681,0.14131 0.223718,0.22884 0.274786,0.37558 0.02059,0.0591 0.0155,0.1233 0.01951,0.18495 0.0056,0.0865 0.01298,0.17827 0.06487,0.25273 0.136439,0.19579 0.326807,0.34492 0.465552,0.53956 0.115338,0.1618 0.189011,0.35066 0.309011,0.50906 0.05248,0.0693 0.181106,0.28112 0.173095,0.19469 -0.0055,-0.0594 -0.02772,-0.11606 -0.04743,-0.17201 -0.06184,-0.17561 -0.167841,-0.33759 -0.202871,-0.52037 -0.01379,-0.0719 0.0049,-0.14465 0.01262,-0.21624 0.0064,-0.0594 0.0035,-0.12039 -0.01973,-0.17707 -0.09621,-0.23522 -0.231083,-0.45286 -0.380088,-0.65777 -0.06526,-0.0897 -0.123546,-0.18687 -0.204612,-0.26268 -0.07533,-0.0704 -0.185561,-0.0982 -0.25019,-0.1787 -0.04463,-0.0556 -0.05938,-0.12803 -0.07628,-0.19555 -0.02402,-0.096 -0.05623,-0.19652 -0.135492,-0.26422 -0.05887,-0.0503 -0.135038,-0.0552 -0.204619,-0.0879 -0.0143,-0.007 -0.02796,-0.0276 -6.31e-4,-0.0178 0.09688,0.0347 0.193979,0.0699 0.285705,0.11656 0.09193,0.0468 0.15693,0.13047 0.218798,0.21038 0.07801,0.10076 0.149513,0.2087 0.251148,0.28827 0.06909,0.0541 0.142213,0.14315 0.229103,0.12851 0.04284,-0.007 0.08908,0.0117 0.131317,0.0243 0.149097,0.0444 0.291186,0.11534 0.444424,0.14224 0.119685,0.021 0.241707,0.0244 0.362912,0.027 0.317659,0.007 0.636847,0.008 0.952541,-0.0291 0.112427,-0.0133 0.221945,-0.0429 0.333807,-0.0647 0.03282,-0.006 0.09386,-0.0582 0.03553,-0.0759 -0.08894,-0.027 -0.18296,-0.0307 -0.275116,-0.0367 -0.09788,-0.006 -0.196264,-0.003 -0.293602,-0.0183 -0.183849,-0.0282 -0.369331,-0.068 -0.536486,-0.15 -0.06034,-0.0296 -0.12254,-0.0562 -0.189135,-0.0688 -0.221576,-0.0418 -0.450238,0.0273 -0.67,-0.0311 -0.164843,-0.0438 -0.303356,-0.15368 -0.463345,-0.20915 -0.07386,-0.0256 -0.153865,-0.0126 -0.230104,-0.008 -0.05687,0.003 -0.120983,0.0336 -0.17136,0.006 -0.02957,-0.0164 -0.04404,-0.0515 -0.06346,-0.079 -0.06447,-0.0911 -0.149327,-0.16872 -0.252142,-0.21508 -0.04742,-0.0214 -0.09684,-0.038 -0.146609,-0.0529"
         id="path4320"
         inkscape:path-effect="#path-effect4322"
         inkscape:original-d="m 75.343207,102.49042 c -0.281832,0.50513 -0.790964,0.4619 -1.175732,0.83637 -0.209074,0.20347 -0.449982,0.48891 -0.613735,0.73056 -0.0793,0.11702 -0.03553,0.2814 -0.09319,0.39491 -0.04247,0.0836 -0.243703,0.21225 -0.17163,0.30822 0.128193,0.17068 0.866995,-1.03141 0.96488,-1.17824 0.277423,-0.41614 0.963657,-0.451 1.172117,-0.78453 0.01342,-0.0214 -0.02532,0.0438 -0.03635,0.0666 -0.06372,0.13163 -0.01397,0.28277 -0.09152,0.41995 -0.09538,0.1687 -0.07804,0.4407 -0.179697,0.61865 -0.257352,0.45049 -0.52683,0.86565 -0.658617,1.3928 -0.02312,0.0925 -0.08527,0.55703 -0.0085,0.58972 0.219027,0.0933 0.32481,-0.32959 0.32481,-0.4498 0,-0.10909 0.05629,-0.0252 0.100883,-0.11442 0.07745,-0.15491 0.07467,-0.38886 0.118409,-0.56107 0.138636,-0.54589 0.473723,-0.9918 0.473723,-1.56082 0,-0.12001 -0.01733,-0.62726 0.09254,-0.64684 0.02622,-0.005 0.124772,0.48388 0.131853,0.57591 0.02804,0.3644 0.132739,1.20887 0.02373,1.53587 -0.07693,0.23078 -0.128307,0.62121 -0.04747,0.87605 0.02318,0.0731 0.217678,0.57725 0.304226,0.53094 0.04463,-0.0239 0.209303,-0.0933 0.212521,-0.16505 0.006,-0.13408 -0.200033,-0.68475 -0.234683,-0.99659 -0.03087,-0.27781 -0.02373,-0.56317 -0.02373,-0.84416 0,-0.15059 -0.118703,-1.48512 -0.208627,-1.51807 -0.04943,-0.0181 0.0043,0.10722 0.02373,0.15615 0.07033,0.17694 0.122325,0.35591 0.19027,0.52555 0.05865,0.14644 0.19548,0.26288 0.283364,0.39677 0.03755,0.0572 -5.29e-4,0.31184 0.07149,0.41994 0.136432,0.20465 0.320667,0.33887 0.455086,0.52584 0.127796,0.17776 0.235863,0.34747 0.330745,0.53826 0.01781,0.0358 0.177922,0.20383 0.178028,0.20288 0.007,-0.0618 -0.213797,-0.61545 -0.244605,-0.67707 -0.03714,-0.0743 0.03911,-0.27096 -0.0019,-0.38044 -0.111779,-0.29808 -0.368604,-0.67719 -0.583044,-0.93512 -0.05989,-0.072 -0.238249,-0.14526 -0.277151,-0.21085 -0.08351,-0.14082 -0.05631,-0.37481 -0.235797,-0.46473 -0.05282,-0.0265 -0.114601,-0.021 -0.171537,-0.0686 -0.07305,-0.0611 0.179205,0.0646 0.269547,0.0947 0.148537,0.0495 0.296304,0.315 0.403532,0.42727 0.154562,0.16183 0.323977,0.21299 0.323977,0.20965 0,-0.0332 0.476906,0.14638 0.572937,0.16616 0.24331,0.0501 1.683514,0.049 1.706856,-0.12082 0.007,-0.0507 -0.369726,-0.0644 -0.429403,-0.0644 -0.209775,0 -0.555644,-0.0888 -0.744755,-0.18341 -0.246046,-0.12302 -0.519818,-0.0192 -0.778414,-0.0712 -0.163211,-0.0328 -0.347324,-0.13362 -0.49199,-0.21326 -0.100246,-0.0552 -0.397907,0.0261 -0.426067,-0.0161 -0.135477,-0.20344 -0.220662,-0.27013 -0.447572,-0.33815"
         inkscape:export-filename="/home/miquel/Rpackages/medfate/data-raw/medfate_logo_image.png"
         inkscape:export-xdpi="150"
         inkscape:export-ydpi="150" />
    </g>
    <path
       style="fill:#784421;stroke:#000000;stroke-width:0.264583px;stroke-linecap:butt;stroke-linejoin:miter;stroke-opacity:1;fill-opacity:1"
       d="m 65.52472,87.09517 c -0.471475,-0.08563 -0.887908,-0.344716 -1.271229,-0.620083 -0.612055,-0.439683 -1.16579,-0.958848 -1.810808,-1.35336 -0.144766,-0.08854 -0.305169,-0.146741 -0.454261,-0.226694 -0.330217,-0.177084 -0.526828,-0.518569 -0.83999,-0.717891 -0.104537,-0.06654 -0.229436,-0.07874 -0.351557,-0.100247 -0.195319,-0.0344 -0.375617,-0.12692 -0.543116,-0.228957 -0.166975,-0.101718 -0.318278,-0.226614 -0.463531,-0.360869 -0.08154,-0.07537 -0.01218,-0.159495 0.08967,-0.166669 0.104303,-0.0073 0.206567,-0.04262 0.281773,-0.123047 0.132188,-0.141366 0.228307,-0.335714 0.417839,-0.407758 0.168119,-0.06391 0.342391,0.0249 0.487242,0.104629 0.315492,0.173656 0.601092,0.40107 0.942806,0.528237 0.629747,0.234357 1.231522,0.536629 1.816254,0.866473 0.547589,0.308892 1.086492,0.635878 1.655019,0.904858 0.162619,0.07694 0.357082,0.08983 0.523092,0.01459 0.341125,-0.154614 0.590277,-0.454963 0.780608,-0.768174 0.35044,-0.576688 0.5671,-1.220454 0.781214,-1.85654 0.08842,-0.262682 0.197488,-0.51822 0.281201,-0.782433 0.07451,-0.235175 0.05377,-0.485926 0.158211,-0.72002 0.0701,-0.157119 0.07542,-0.333381 0.08812,-0.50227 0.03039,-0.404471 0.02333,-0.815828 0.120918,-1.211855 0.02828,-0.11475 0.08447,-0.220795 0.09359,-0.341051 0.02757,-0.363486 -0.06399,-0.729368 0.0031,-1.091347 0.02027,-0.109383 0.08255,-0.203443 0.09747,-0.315766 0.02361,-0.177781 -0.03662,-0.391921 0.08724,-0.533433 0.07355,-0.08403 0.187072,-0.117754 0.290501,-0.148999 0.227064,-0.0686 0.460461,-0.135553 0.698165,-0.135924 0.09603,-1.5e-4 0.17983,0.05727 0.264649,0.097 0.107532,0.05037 0.221946,0.109043 0.273031,0.226718 0.102019,0.235001 0.107911,0.497779 0.103597,0.749595 -0.01108,0.646739 -0.15495,1.285224 -0.153226,1.931636 4.13e-4,0.154825 -0.05309,0.349521 0.05678,0.462391 0.06661,0.06842 0.175644,0.04713 0.258719,0.03097 0.327251,-0.06366 0.638549,-0.188273 0.949146,-0.30602 0.437896,-0.166006 0.869728,-0.348528 1.314265,-0.497067 0.103333,-0.03453 0.211255,-0.0455 0.319354,-0.05646 0.225099,-0.02283 0.450606,-0.04898 0.67878,-0.04184 0.128338,0.004 0.07721,0.144605 0.06121,0.225707 -0.01678,0.08505 -0.05622,0.174779 -0.02796,0.261177 0.01263,0.03862 0.112964,0.02172 0.04508,0.06137 -0.228116,0.133231 -0.469014,0.243204 -0.700188,0.371112 -0.240868,0.133271 -0.477766,0.273835 -0.728226,0.389364 -0.500178,0.230716 -1.004052,0.450082 -1.501968,0.689344 -0.208475,0.100178 -0.465233,0.08937 -0.649018,0.238437 -0.162126,0.131502 -0.196311,0.350882 -0.221609,0.546024 -0.02703,0.208469 -0.005,0.442829 -0.131047,0.618615 -0.196716,0.274321 -0.321167,0.591638 -0.445823,0.902875 -0.134321,0.335367 -0.302932,0.660212 -0.392348,1.01024 -0.02954,0.11563 0.08179,0.254188 0.189538,0.240286 0.07945,-0.01025 0.145963,-0.06626 0.217382,-0.102723 0.401052,-0.204775 0.864572,-0.229163 1.27448,-0.407266 0.284313,-0.123533 0.533432,-0.324545 0.842058,-0.394232 0.221427,-0.05 0.441015,-0.103271 0.653726,-0.195216 0.187666,-0.08112 0.390137,-0.120462 0.586005,-0.181809 0.08544,-0.02676 0.112086,0.03488 0.107693,0.121045 -0.0057,0.111177 -0.138166,0.06954 -0.200825,0.120898 -0.121256,0.09939 -0.159655,0.258109 -0.215646,0.39782 -0.08362,0.208648 -0.28949,0.332306 -0.482231,0.42643 -0.282187,0.137804 -0.6108,0.198729 -0.851173,0.405714 -0.108415,0.09336 -0.185521,0.230042 -0.334101,0.271581 -0.273695,0.07652 -0.579112,-0.0111 -0.83822,0.113165 -0.223109,0.106997 -0.375687,0.311906 -0.515506,0.508472 -0.204156,0.287014 -0.362237,0.608605 -0.602318,0.868297 -0.09622,0.104084 -0.230128,0.216127 -0.382259,0.182213 -0.04065,-0.0091 -0.07863,-0.02777 -0.112765,-0.05134"
       id="path4823"
       inkscape:path-effect="#path-effect4825"
       inkscape:original-d="m 65.52472,87.09517 c -1.183621,-0.206684 -2.310624,-1.686179 -3.457844,-2.162868 -0.490593,-0.203851 -0.745752,-0.853985 -1.245092,-0.853985 -0.247513,0 -1.0922,-0.493527 -1.069288,-0.689306 0.01278,-0.10922 0.240123,-0.0272 0.371266,-0.152807 0.205666,-0.196996 0.349314,-0.571545 0.722871,-0.441365 0.367536,0.12808 0.696473,0.453877 1.097476,0.603073 1.408292,0.523965 2.034148,1.030287 3.47435,1.766197 0.224189,0.114556 0.420586,0.134368 0.648877,0.0141 0.962832,-0.507262 1.372259,-2.369397 1.763231,-3.331554 0.09717,-0.239128 0.02943,-0.530937 0.167272,-0.752729 0.160129,-0.257662 0.05779,-1.393663 0.267602,-1.879319 0.139764,-0.323522 -0.09117,-1.052002 0.09495,-1.424234 0.10642,-0.212844 0.0067,-0.502354 0.135189,-0.704884 0.09842,-0.155173 0.965173,-0.323747 1.056121,-0.277059 0.10681,0.05483 0.362363,0.143338 0.427455,0.239599 0.402244,0.594841 -0.172643,2.657901 0.04247,3.205821 0.126523,0.322279 2.344086,-0.808918 2.777995,-0.808918 0.121515,0 0.838962,-0.137451 0.838962,0.01595 0,0.150768 -0.15077,0.452305 0,0.452305 0.121642,0 -0.442984,0.239901 -0.95023,0.538724 -0.650422,0.383164 -1.308409,0.555545 -1.964626,0.929645 -0.181994,0.103751 -0.495388,0.113998 -0.66761,0.246271 -0.3385,0.259988 -0.156141,0.898568 -0.380352,1.200029 -0.274561,0.369162 -0.608163,1.382172 -0.813369,1.870233 -0.06127,0.145736 0.154586,0.290346 0.22773,0.24646 0.477107,-0.286266 0.844388,-0.296177 1.346716,-0.463619 0.320407,-0.106802 0.54634,-0.329927 0.881057,-0.417811 0.218675,-0.05742 0.499057,-0.07883 0.695984,-0.199541 0.07684,-0.0471 0.720275,-0.290066 0.720275,-0.153551 0,0.269981 -0.129977,0.09279 -0.252765,0.246274 -0.207888,0.259861 -0.0765,0.412967 -0.442661,0.662601 -0.292142,0.199171 -0.725278,0.294971 -1.026451,0.498298 -0.12655,0.08544 -0.18076,0.231 -0.330094,0.284845 -0.263012,0.09483 -0.658503,0.01558 -0.899046,0.136118 -0.624512,0.312907 -1.047382,1.870905 -1.589852,1.496917"
       inkscape:export-filename="/home/miquel/Rpackages/medfate/data-raw/medfate_logo_image.png"
       inkscape:export-xdpi="150"
       inkscape:export-ydpi="150" />
    <path
       style="fill:none;stroke:#000000;stroke-width:0.264583px;stroke-linecap:butt;stroke-linejoin:miter;stroke-opacity:1"
       d="m 44.407502,101.84043 2.457678,-0.17037 8.878345,0.26222 3.061268,-0.54781 2.924493,0.17784 1.342805,-0.0854"
       id="path4847"
       inkscape:export-filename="/home/miquel/Rpackages/medfate/data-raw/medfate_logo_image.png"
       inkscape:export-xdpi="150"
       inkscape:export-ydpi="150" />
  </g>
</svg>
